<svg xmlns="http://www.w3.org/2000/svg" xmlns:xlink="http://www.w3.org/1999/xlink" width="1080" zoomAndPan="magnify" viewBox="0 0 810 809.999993" height="1080" preserveAspectRatio="xMidYMid meet" version="1.0"><defs><filter x="0%" y="0%" width="100%" height="100%" id="855284629c"><feColorMatrix values="0 0 0 0 1 0 0 0 0 1 0 0 0 0 1 0 0 0 1 0" color-interpolation-filters="sRGB"/></filter><g/><clipPath id="18394fdbc7"><path d="M 380 488 L 434 488 L 434 506.421875 L 380 506.421875 Z M 380 488 " clip-rule="nonzero"/></clipPath><mask id="090542018b"><g filter="url(#855284629c)"><rect x="-81" width="972" fill="#000000" y="-80.999999" height="971.999992" fill-opacity="0.25"/></g></mask><clipPath id="f1e3411dc6"><path d="M 0.398438 106 L 106.71875 106 L 106.71875 220.398438 L 0.398438 220.398438 Z M 0.398438 106 " clip-rule="nonzero"/></clipPath><clipPath id="8c066e8e0f"><rect x="0" width="107" y="0" height="221"/></clipPath><clipPath id="6f651b199a"><path d="M 249.625 286 L 286 286 L 286 298 L 249.625 298 Z M 249.625 286 " clip-rule="nonzero"/></clipPath><clipPath id="a24ad0c451"><path d="M 523 286 L 560.125 286 L 560.125 298 L 523 298 Z M 523 286 " clip-rule="nonzero"/></clipPath></defs><rect x="-81" width="972" fill="#ffffff" y="-80.999999" height="971.999992" fill-opacity="1"/><rect x="-81" width="972" fill="#ffffff" y="-80.999999" height="971.999992" fill-opacity="1"/><path fill="#e00051" d="M 405.320312 421.285156 C 405.320312 421.285156 387.308594 421.871094 371.640625 419.796875 C 362.859375 418.636719 359.152344 411.292969 358.164062 404.304688 C 357.386719 398.828125 358.28125 393.570312 359.703125 391.675781 C 345.855469 391.09375 343.453125 378.898438 343.453125 378.898438 C 343.453125 378.898438 338.3125 378.230469 337.484375 377.984375 C 336.933594 377.820312 333.132812 375.351562 330.492188 373.683594 C 329.15625 372.84375 328.117188 372.207031 327.949219 372.175781 C 327.453125 372.09375 324.550781 361.554688 324.550781 361.554688 L 314.683594 358.070312 L 308.132812 342.394531 L 308.691406 338.835938 L 309.792969 331.855469 L 300.507812 326.128906 L 298.183594 309.039062 L 299.375 304.125 L 301.667969 294.6875 L 306.890625 288.710938 C 306.890625 288.710938 303.992188 279.667969 303.992188 279.421875 C 303.992188 279.320312 304.300781 277.742188 304.660156 275.921875 C 305.183594 273.316406 305.8125 270.210938 305.8125 270.210938 L 314.601562 261.25 L 319.160156 254.945312 C 319.160156 254.945312 319.195312 254.828125 319.261719 254.613281 C 319.878906 252.53125 323.222656 241.273438 323.222656 240.59375 C 323.222656 239.84375 328.78125 235.03125 328.78125 235.03125 L 334.386719 233.625 L 347.597656 230.304688 C 347.597656 230.304688 348.429688 225.988281 348.429688 225.242188 C 348.429688 224.695312 353.066406 220.398438 355.539062 218.140625 C 356.4375 217.328125 357.050781 216.78125 357.050781 216.78125 L 366.582031 215.703125 C 366.582031 215.703125 374.210938 206.824219 374.375 206.492188 C 374.542969 206.160156 386.898438 203.425781 386.898438 203.425781 L 404.554688 209.894531 L 404.5625 211.492188 L 404.679688 244.230469 L 404.777344 272.070312 L 404.875 298.839844 L 404.972656 325.179688 L 405.066406 351.304688 L 405.160156 377.300781 L 405.253906 403.222656 Z M 405.320312 421.285156 " fill-opacity="1" fill-rule="nonzero"/><path fill="#ffb401" d="M 405.257812 403.222656 C 395.941406 404.464844 386.433594 405.109375 376.78125 405.109375 C 370.507812 405.109375 364.300781 404.839844 358.164062 404.304688 C 357.386719 398.828125 358.28125 393.570312 359.703125 391.675781 C 345.855469 391.09375 343.453125 378.898438 343.453125 378.898438 C 343.453125 378.898438 338.3125 378.230469 337.484375 377.984375 C 336.933594 377.820312 333.132812 375.351562 330.492188 373.683594 C 329.15625 372.84375 328.117188 372.207031 327.949219 372.175781 C 327.453125 372.09375 324.550781 361.554688 324.550781 361.554688 L 314.683594 358.070312 L 308.132812 342.394531 L 308.691406 338.835938 L 309.792969 331.855469 L 300.507812 326.128906 L 298.183594 309.039062 L 299.375 304.125 L 301.667969 294.6875 L 306.890625 288.710938 C 306.890625 288.710938 303.992188 279.667969 303.992188 279.421875 C 303.992188 279.320312 304.300781 277.742188 304.660156 275.921875 C 305.183594 273.316406 305.8125 270.210938 305.8125 270.210938 L 314.601562 261.25 L 319.160156 254.945312 C 319.160156 254.945312 319.195312 254.828125 319.261719 254.613281 C 319.878906 252.53125 323.222656 241.273438 323.222656 240.59375 C 323.222656 239.84375 328.78125 235.03125 328.78125 235.03125 L 334.386719 233.625 L 347.597656 230.304688 C 347.597656 230.304688 348.429688 225.988281 348.429688 225.242188 C 348.429688 224.695312 353.066406 220.398438 355.539062 218.140625 C 356.4375 217.328125 357.050781 216.78125 357.050781 216.78125 L 366.582031 215.703125 C 366.582031 215.703125 374.210938 206.824219 374.375 206.492188 C 374.542969 206.160156 386.898438 203.425781 386.898438 203.425781 L 404.554688 209.894531 L 404.5625 211.492188 L 404.679688 244.230469 L 404.777344 272.070312 L 404.875 298.839844 L 404.972656 325.179688 L 405.066406 351.304688 L 405.160156 377.300781 L 405.253906 403.222656 Z M 405.257812 403.222656 " fill-opacity="0.1" fill-rule="nonzero"/><path fill="#ffb401" d="M 405.160156 377.300781 C 395.902344 378.710938 386.425781 379.4375 376.78125 379.4375 C 360.816406 379.4375 345.308594 377.441406 330.492188 373.683594 C 329.15625 372.84375 328.117188 372.207031 327.949219 372.175781 C 327.453125 372.09375 324.550781 361.554688 324.550781 361.554688 L 314.683594 358.070312 L 308.132812 342.394531 L 308.691406 338.835938 L 309.792969 331.855469 L 300.507812 326.128906 L 298.183594 309.039062 L 299.375 304.125 L 301.667969 294.6875 L 306.890625 288.710938 C 306.890625 288.710938 303.992188 279.667969 303.992188 279.421875 C 303.992188 279.320312 304.300781 277.742188 304.660156 275.921875 C 305.183594 273.316406 305.8125 270.210938 305.8125 270.210938 L 314.601562 261.25 L 319.160156 254.945312 C 319.160156 254.945312 319.195312 254.828125 319.261719 254.613281 C 319.878906 252.53125 323.222656 241.273438 323.222656 240.59375 C 323.222656 239.84375 328.78125 235.03125 328.78125 235.03125 L 334.386719 233.625 L 347.597656 230.304688 C 347.597656 230.304688 348.429688 225.988281 348.429688 225.242188 C 348.429688 224.695312 353.066406 220.398438 355.539062 218.140625 C 356.4375 217.328125 357.050781 216.78125 357.050781 216.78125 L 366.582031 215.703125 C 366.582031 215.703125 374.210938 206.824219 374.375 206.492188 C 374.542969 206.160156 386.898438 203.425781 386.898438 203.425781 L 404.554688 209.894531 L 404.5625 211.492188 L 404.679688 244.230469 L 404.777344 272.070312 L 404.875 298.839844 L 404.972656 325.179688 L 405.066406 351.304688 Z M 405.160156 377.300781 " fill-opacity="0.1" fill-rule="nonzero"/><path fill="#ffb401" d="M 405.066406 351.304688 C 395.878906 352.925781 386.425781 353.765625 376.78125 353.765625 C 352.488281 353.765625 329.421875 348.421875 308.691406 338.835938 L 309.792969 331.855469 L 300.507812 326.128906 L 298.183594 309.039062 L 299.375 304.125 L 301.667969 294.6875 L 306.890625 288.710938 C 306.890625 288.710938 303.992188 279.667969 303.992188 279.421875 C 303.992188 279.320312 304.300781 277.742188 304.660156 275.921875 C 305.183594 273.316406 305.8125 270.210938 305.8125 270.210938 L 314.601562 261.25 L 319.160156 254.945312 C 319.160156 254.945312 319.195312 254.828125 319.261719 254.613281 C 319.878906 252.53125 323.222656 241.273438 323.222656 240.59375 C 323.222656 239.84375 328.78125 235.03125 328.78125 235.03125 L 334.386719 233.625 L 347.597656 230.304688 C 347.597656 230.304688 348.429688 225.988281 348.429688 225.242188 C 348.429688 224.695312 353.066406 220.398438 355.539062 218.140625 C 356.4375 217.328125 357.050781 216.78125 357.050781 216.78125 L 366.582031 215.703125 C 366.582031 215.703125 374.210938 206.824219 374.375 206.492188 C 374.542969 206.160156 386.898438 203.425781 386.898438 203.425781 L 404.554688 209.894531 L 404.5625 211.492188 L 404.679688 244.230469 L 404.777344 272.070312 L 404.875 298.839844 L 404.972656 325.179688 Z M 405.066406 351.304688 " fill-opacity="0.1" fill-rule="nonzero"/><path fill="#ffb401" d="M 404.972656 325.179688 C 395.871094 327.089844 386.441406 328.09375 376.78125 328.09375 C 348.09375 328.09375 321.429688 319.242188 299.375 304.125 L 301.667969 294.6875 L 306.890625 288.710938 C 306.890625 288.710938 303.992188 279.667969 303.992188 279.421875 C 303.992188 279.320312 304.300781 277.742188 304.660156 275.921875 C 305.183594 273.316406 305.8125 270.210938 305.8125 270.210938 L 314.601562 261.25 L 319.160156 254.945312 C 319.160156 254.945312 319.195312 254.828125 319.261719 254.613281 C 319.878906 252.53125 323.222656 241.273438 323.222656 240.59375 C 323.222656 239.84375 328.78125 235.03125 328.78125 235.03125 L 334.386719 233.625 L 347.597656 230.304688 C 347.597656 230.304688 348.429688 225.988281 348.429688 225.242188 C 348.429688 224.695312 353.066406 220.398438 355.539062 218.140625 C 356.4375 217.328125 357.050781 216.78125 357.050781 216.78125 L 366.582031 215.703125 C 366.582031 215.703125 374.210938 206.824219 374.375 206.492188 C 374.542969 206.160156 386.898438 203.425781 386.898438 203.425781 L 404.554688 209.894531 L 404.5625 211.492188 L 404.679688 244.230469 L 404.777344 272.070312 L 404.875 298.839844 Z M 404.972656 325.179688 " fill-opacity="0.1" fill-rule="nonzero"/><path fill="#ffb401" d="M 404.875 298.839844 C 395.898438 301.179688 386.480469 302.425781 376.78125 302.425781 C 349.3125 302.425781 324.128906 292.445312 304.660156 275.921875 C 305.183594 273.316406 305.8125 270.210938 305.8125 270.210938 L 314.601562 261.25 L 319.160156 254.945312 C 319.160156 254.945312 319.199219 254.828125 319.261719 254.613281 C 319.878906 252.53125 323.222656 241.273438 323.222656 240.59375 C 323.222656 239.84375 328.78125 235.03125 328.78125 235.03125 L 334.386719 233.625 L 347.597656 230.304688 C 347.597656 230.304688 348.429688 225.988281 348.429688 225.242188 C 348.429688 224.695312 353.066406 220.398438 355.539062 218.140625 C 356.4375 217.328125 357.050781 216.78125 357.050781 216.78125 L 366.582031 215.703125 C 366.582031 215.703125 374.210938 206.824219 374.375 206.492188 C 374.542969 206.160156 386.898438 203.425781 386.898438 203.425781 L 404.554688 209.894531 L 404.5625 211.492188 L 404.679688 244.230469 L 404.777344 272.070312 Z M 404.875 298.839844 " fill-opacity="0.1" fill-rule="nonzero"/><path fill="#ffb401" d="M 404.777344 272.070312 C 396 275.105469 386.578125 276.753906 376.78125 276.753906 C 354.683594 276.753906 334.511719 268.371094 319.261719 254.613281 C 319.878906 252.53125 323.222656 241.273438 323.222656 240.59375 C 323.222656 239.84375 328.78125 235.03125 328.78125 235.03125 L 334.386719 233.625 L 347.597656 230.304688 C 347.597656 230.304688 348.429688 225.988281 348.429688 225.242188 C 348.429688 224.695312 353.066406 220.398438 355.539062 218.140625 C 356.4375 217.328125 357.050781 216.78125 357.050781 216.78125 L 366.582031 215.703125 C 366.582031 215.703125 374.210938 206.824219 374.375 206.492188 C 374.542969 206.160156 386.898438 203.425781 386.898438 203.425781 L 404.554688 209.894531 L 404.5625 211.492188 L 404.679688 244.230469 Z M 404.777344 272.070312 " fill-opacity="0.1" fill-rule="nonzero"/><path fill="#ffb401" d="M 404.679688 244.230469 C 396.328125 248.605469 386.839844 251.082031 376.78125 251.082031 C 360.273438 251.082031 345.292969 244.410156 334.386719 233.625 L 347.597656 230.304688 C 347.597656 230.304688 348.429688 225.988281 348.429688 225.242188 C 348.429688 224.695312 353.066406 220.398438 355.539062 218.140625 C 356.4375 217.328125 357.050781 216.78125 357.050781 216.78125 L 366.582031 215.703125 C 366.582031 215.703125 374.210938 206.824219 374.375 206.492188 C 374.542969 206.160156 386.898438 203.425781 386.898438 203.425781 L 404.554688 209.894531 L 404.5625 211.492188 Z M 404.679688 244.230469 " fill-opacity="0.1" fill-rule="nonzero"/><path fill="#ffb401" d="M 404.5625 211.492188 C 398.230469 219.941406 388.148438 225.410156 376.78125 225.410156 C 368.777344 225.410156 361.410156 222.699219 355.539062 218.140625 C 356.4375 217.328125 357.050781 216.78125 357.050781 216.78125 L 366.582031 215.703125 C 366.582031 215.703125 374.210938 206.824219 374.375 206.492188 C 374.542969 206.160156 386.898438 203.425781 386.898438 203.425781 L 404.554688 209.894531 Z M 404.5625 211.492188 " fill-opacity="0.1" fill-rule="nonzero"/><g clip-path="url(#18394fdbc7)"><path fill="#001447" d="M 433.402344 488.316406 C 438.269531 512.316406 375.921875 512.304688 380.792969 488.316406 Z M 433.402344 488.316406 " fill-opacity="1" fill-rule="nonzero"/></g><path fill="#001447" d="M 409.433594 424.375 C 408.019531 424.375 406.589844 424.34375 405.1875 424.28125 C 403.484375 424.210938 402.164062 422.769531 402.238281 421.066406 C 402.3125 419.363281 403.746094 418.042969 405.453125 418.117188 C 406.769531 418.171875 408.105469 418.199219 409.433594 418.199219 C 411.136719 418.199219 412.515625 419.582031 412.515625 421.285156 C 412.515625 422.992188 411.136719 424.375 409.433594 424.375 Z M 409.433594 424.375 " fill-opacity="1" fill-rule="nonzero"/><path fill="#ffb401" d="M 510.527344 306.269531 C 510.488281 308.308594 510.382812 310.347656 510.195312 312.378906 C 509.699219 317.972656 508.660156 323.519531 507.066406 328.941406 C 506.464844 330.988281 505.804688 333.050781 505.082031 335.121094 C 503.722656 339.015625 502.128906 342.929688 500.265625 346.78125 C 498.160156 351.128906 495.535156 355.1875 492.558594 358.984375 C 488.859375 363.710938 484.617188 368.027344 480.175781 372.011719 C 478.230469 373.753906 476.355469 375.539062 474.546875 377.355469 C 468.066406 383.871094 462.472656 390.835938 457.90625 397.996094 C 457.417969 398.753906 456.945312 399.519531 456.480469 400.28125 C 454.484375 403.578125 452.78125 407.480469 451.585938 411.15625 C 449.667969 417.066406 449.039062 420.21875 446.515625 422.023438 C 446.398438 422.113281 446.285156 422.199219 446.171875 422.28125 L 404.574219 422.28125 L 404.574219 215.347656 C 404.574219 212.738281 405.375 210.324219 406.742188 208.328125 C 409.101562 204.882812 413.144531 202.695312 417.640625 202.949219 C 446.894531 204.59375 469.960938 217.316406 485.917969 236.839844 C 494.277344 247.070312 500.6875 259.171875 505.007812 272.527344 C 506.550781 277.285156 507.824219 282.207031 508.828125 287.257812 C 510.078125 293.535156 510.648438 299.914062 510.527344 306.269531 Z M 510.527344 306.269531 " fill-opacity="1" fill-rule="nonzero"/><g mask="url(#090542018b)"><g transform="matrix(1, 0, 0, 1, 404, 202)"><g clip-path="url(#8c066e8e0f)"><path fill="#e00051" d="M 69.0625 22.03125 C 53.214844 12.816406 34.507812 5.765625 15.632812 1.082031 C 36.613281 2.371094 54.683594 10.109375 69.0625 22.03125 Z M 69.0625 22.03125 " fill-opacity="1" fill-rule="nonzero"/><g clip-path="url(#f1e3411dc6)"><path fill="#e00051" d="M 106.40625 106.898438 C 105.359375 124.726562 99.410156 142.699219 88.558594 156.984375 C 77.589844 170.199219 62.425781 181.167969 53.90625 195.996094 C 51.25 200 49.058594 204.5625 47.585938 209.15625 C 45.558594 215.34375 45.09375 218.300781 42.171875 220.28125 L 0.574219 220.28125 L 0.574219 217.296875 L 10.425781 217.296875 C 13.339844 215.328125 13.816406 212.347656 15.839844 206.167969 C 17.3125 201.574219 19.691406 197.136719 22.15625 193.007812 C 52.582031 142.132812 79.398438 165.863281 106.34375 107.039062 C 106.367188 106.992188 106.386719 106.945312 106.40625 106.898438 Z M 106.40625 106.898438 " fill-opacity="1" fill-rule="nonzero"/></g></g></g></g><path fill="#e00051" d="M 510.527344 306.269531 C 510.386719 313.925781 509.238281 321.550781 507.066406 328.941406 C 506.464844 330.988281 505.804688 333.050781 505.082031 335.121094 C 503.722656 339.015625 502.128906 342.929688 500.265625 346.78125 C 498.160156 351.128906 495.535156 355.1875 492.558594 358.984375 C 488.859375 363.710938 484.617188 368.027344 480.175781 372.011719 C 478.230469 373.753906 476.355469 375.539062 474.546875 377.355469 C 468.066406 383.871094 462.472656 390.835938 457.90625 397.996094 C 457.417969 398.753906 456.945312 399.519531 456.480469 400.28125 C 454.484375 403.578125 452.78125 407.480469 451.585938 411.15625 C 449.667969 417.066406 449.039062 420.21875 446.515625 422.023438 C 446.398438 422.113281 446.285156 422.199219 446.171875 422.28125 L 404.574219 422.28125 L 404.574219 230.058594 C 412.933594 228.90625 421.460938 228.308594 430.132812 228.308594 C 449.554688 228.308594 468.296875 231.300781 485.917969 236.839844 C 494.277344 247.070312 500.6875 259.171875 505.007812 272.527344 C 506.550781 277.285156 507.824219 282.207031 508.828125 287.257812 C 510.078125 293.535156 510.648438 299.914062 510.527344 306.269531 Z M 510.527344 306.269531 " fill-opacity="0.1" fill-rule="nonzero"/><path fill="#e00051" d="M 510.527344 306.269531 C 510.386719 313.925781 509.238281 321.550781 507.066406 328.941406 C 506.464844 330.988281 505.804688 333.050781 505.082031 335.121094 C 503.722656 339.015625 502.128906 342.929688 500.265625 346.78125 C 498.160156 351.128906 495.535156 355.1875 492.558594 358.984375 C 488.859375 363.710938 484.617188 368.027344 480.175781 372.011719 C 478.230469 373.753906 476.355469 375.539062 474.546875 377.355469 C 468.066406 383.871094 462.472656 390.835938 457.90625 397.996094 C 457.417969 398.753906 456.945312 399.519531 456.480469 400.28125 C 454.484375 403.578125 452.78125 407.480469 451.585938 411.15625 C 449.667969 417.066406 449.039062 420.21875 446.515625 422.023438 C 446.398438 422.113281 446.285156 422.199219 446.171875 422.28125 L 404.574219 422.28125 L 404.574219 256.011719 C 412.898438 254.675781 421.4375 253.980469 430.132812 253.980469 C 457.152344 253.980469 482.636719 260.6875 505.007812 272.527344 C 506.550781 277.285156 507.824219 282.207031 508.828125 287.257812 C 510.078125 293.535156 510.648438 299.914062 510.527344 306.269531 Z M 510.527344 306.269531 " fill-opacity="0.1" fill-rule="nonzero"/><path fill="#e00051" d="M 510.527344 306.269531 C 510.386719 313.925781 509.238281 321.550781 507.066406 328.941406 C 506.464844 330.988281 505.804688 333.050781 505.082031 335.121094 C 503.722656 339.015625 502.128906 342.929688 500.265625 346.78125 C 498.160156 351.128906 495.535156 355.1875 492.558594 358.984375 C 488.859375 363.710938 484.617188 368.027344 480.175781 372.011719 C 478.230469 373.753906 476.355469 375.539062 474.546875 377.355469 C 468.066406 383.871094 462.472656 390.835938 457.90625 397.996094 C 457.417969 398.753906 456.945312 399.519531 456.480469 400.28125 C 454.484375 403.578125 452.78125 407.480469 451.585938 411.15625 C 449.667969 417.066406 449.039062 420.21875 446.515625 422.023438 C 446.398438 422.113281 446.285156 422.199219 446.171875 422.28125 L 404.574219 422.28125 L 404.574219 282.078125 C 412.851562 280.488281 421.398438 279.652344 430.132812 279.652344 C 460.226562 279.652344 488.050781 289.554688 510.527344 306.269531 Z M 510.527344 306.269531 " fill-opacity="0.1" fill-rule="nonzero"/><path fill="#e00051" d="M 505.082031 335.121094 C 503.722656 339.015625 502.128906 342.929688 500.265625 346.78125 C 498.160156 351.128906 495.535156 355.1875 492.558594 358.984375 C 488.859375 363.710938 484.617188 368.027344 480.175781 372.011719 C 478.230469 373.753906 476.355469 375.539062 474.546875 377.355469 C 468.066406 383.871094 462.472656 390.835938 457.90625 397.996094 C 457.417969 398.753906 456.945312 399.519531 456.480469 400.28125 C 454.484375 403.578125 452.78125 407.480469 451.585938 411.15625 C 449.667969 417.066406 449.039062 420.21875 446.515625 422.023438 C 446.398438 422.113281 446.285156 422.199219 446.171875 422.28125 L 404.574219 422.28125 L 404.574219 308.339844 C 412.777344 306.367188 421.335938 305.324219 430.132812 305.324219 C 459.109375 305.324219 485.488281 316.652344 505.082031 335.121094 Z M 505.082031 335.121094 " fill-opacity="0.1" fill-rule="nonzero"/><path fill="#e00051" d="M 492.558594 358.984375 C 488.859375 363.710938 484.617188 368.027344 480.175781 372.011719 C 478.230469 373.753906 476.355469 375.539062 474.546875 377.355469 C 468.066406 383.871094 462.472656 390.835938 457.90625 397.996094 C 457.417969 398.753906 456.945312 399.519531 456.480469 400.28125 C 454.484375 403.578125 452.78125 407.480469 451.585938 411.15625 C 449.667969 417.066406 449.039062 420.21875 446.515625 422.023438 C 446.398438 422.113281 446.285156 422.199219 446.171875 422.28125 L 404.574219 422.28125 L 404.574219 334.984375 C 412.632812 332.394531 421.222656 330.992188 430.132812 330.992188 C 454.910156 330.992188 477.207031 341.8125 492.558594 358.984375 Z M 492.558594 358.984375 " fill-opacity="0.1" fill-rule="nonzero"/><path fill="#e00051" d="M 474.546875 377.355469 C 468.066406 383.871094 462.472656 390.835938 457.90625 397.996094 C 457.417969 398.753906 456.945312 399.519531 456.480469 400.28125 C 454.484375 403.578125 452.78125 407.480469 451.585938 411.15625 C 449.667969 417.066406 449.039062 420.21875 446.515625 422.023438 C 446.398438 422.113281 446.285156 422.199219 446.171875 422.28125 L 404.574219 422.28125 L 404.574219 362.597656 C 412.292969 358.800781 420.96875 356.664062 430.132812 356.664062 C 447.925781 356.664062 463.878906 364.710938 474.546875 377.355469 Z M 474.546875 377.355469 " fill-opacity="0.1" fill-rule="nonzero"/><path fill="#e00051" d="M 457.90625 397.996094 C 457.417969 398.753906 456.945312 399.519531 456.480469 400.28125 C 454.484375 403.578125 452.78125 407.480469 451.585938 411.15625 C 449.667969 417.066406 449.039062 420.21875 446.515625 422.023438 C 446.398438 422.113281 446.285156 422.199219 446.171875 422.28125 L 404.574219 422.28125 L 404.574219 394.792969 C 410.515625 387.210938 419.753906 382.335938 430.132812 382.335938 C 441.902344 382.335938 452.210938 388.605469 457.90625 397.996094 Z M 457.90625 397.996094 " fill-opacity="0.3" fill-rule="nonzero"/><path fill="#ffffff" d="M 510.527344 306.269531 C 510.488281 308.308594 510.382812 310.347656 510.195312 312.378906 C 509.03125 312.316406 507.835938 312.199219 506.613281 312.027344 C 501.386719 210.226562 408.492188 217.570312 408.492188 217.570312 L 406.742188 208.328125 C 409.101562 204.882812 413.144531 202.695312 417.640625 202.949219 C 446.894531 204.59375 469.960938 217.316406 485.917969 236.839844 C 494.277344 247.070312 500.6875 259.171875 505.007812 272.527344 C 506.550781 277.285156 507.824219 282.207031 508.828125 287.257812 C 510.078125 293.535156 510.648438 299.914062 510.527344 306.269531 Z M 510.527344 306.269531 " fill-opacity="0.55" fill-rule="nonzero"/><path fill="#001447" d="M 447.90625 424.375 L 402.234375 424.375 L 402.234375 212.398438 C 402.234375 208.660156 403.714844 205.175781 406.402344 202.582031 C 409.101562 199.984375 412.652344 198.625 416.398438 198.773438 C 441.519531 199.722656 463.78125 208.777344 480.777344 224.960938 C 496.71875 240.140625 507.71875 261.128906 512.597656 285.664062 C 515.460938 300.074219 514.828125 314.996094 510.769531 328.816406 C 508.84375 335.375 506.492188 341.539062 503.785156 347.128906 C 499.453125 356.082031 492.648438 364.648438 482.980469 373.316406 C 473.644531 381.683594 465.867188 390.957031 459.863281 400.882812 C 458.089844 403.816406 456.457031 407.449219 455.265625 411.113281 C 454.96875 412.019531 454.707031 412.863281 454.460938 413.644531 C 453 418.292969 452.039062 421.375 449.101562 423.5 C 448.972656 423.601562 448.84375 423.699219 448.710938 423.792969 L 447.90625 424.367188 Z M 408.402344 418.199219 L 445.839844 418.199219 C 446.84375 417.21875 447.445312 415.386719 448.574219 411.800781 C 448.824219 411.003906 449.09375 410.136719 449.398438 409.207031 C 450.730469 405.109375 452.574219 401.015625 454.585938 397.6875 C 460.90625 387.238281 469.074219 377.492188 478.863281 368.71875 C 487.925781 360.597656 494.257812 352.65625 498.238281 344.441406 C 500.796875 339.148438 503.023438 333.308594 504.855469 327.074219 C 508.636719 314.207031 509.222656 300.300781 506.554688 286.867188 C 496.707031 237.332031 462.917969 206.703125 416.175781 204.9375 C 414.117188 204.863281 412.167969 205.605469 410.691406 207.027344 C 409.21875 208.445312 408.410156 210.351562 408.410156 212.394531 L 408.410156 418.195312 Z M 408.402344 418.199219 " fill-opacity="1" fill-rule="nonzero"/><path fill="#001447" d="M 424.164062 423.257812 C 424.09375 423.257812 424.023438 423.257812 423.953125 423.253906 C 422.25 423.140625 420.96875 421.664062 421.082031 419.964844 C 421.457031 414.441406 421.726562 406.871094 422.011719 398.863281 C 422.421875 387.34375 422.84375 375.429688 423.640625 367.460938 C 426.179688 342.089844 433.496094 323.269531 445.9375 310.199219 C 445.765625 309.84375 445.597656 309.480469 445.433594 309.117188 C 443.671875 305.203125 442.570312 300.960938 442.199219 296.78125 C 440.390625 296.558594 438.683594 296.238281 437.171875 295.949219 C 434.601562 295.464844 431.8125 294.882812 429.046875 293.960938 C 427.925781 295.082031 426.828125 296.050781 425.855469 296.851562 L 424.847656 297.683594 C 418.996094 302.523438 410.972656 309.152344 404.160156 311.242188 C 402.535156 311.742188 400.808594 310.828125 400.308594 309.199219 C 399.808594 307.566406 400.722656 305.84375 402.351562 305.34375 C 407.992188 303.605469 415.773438 297.179688 420.921875 292.921875 L 421.933594 292.085938 C 422.242188 291.832031 422.589844 291.535156 422.964844 291.199219 C 422.804688 291.101562 422.644531 291.003906 422.484375 290.902344 C 417.199219 287.53125 414.261719 281.574219 414.617188 274.972656 C 414.738281 272.757812 415.105469 266.015625 421.480469 263.800781 C 425.515625 262.398438 430.03125 263.359375 432.714844 266.1875 C 435.160156 268.765625 436.730469 272.128906 437.132812 275.65625 C 437.695312 280.582031 435.882812 285.074219 433.355469 288.800781 C 435.039062 289.242188 436.71875 289.582031 438.3125 289.882812 C 439.640625 290.132812 440.933594 290.367188 442.179688 290.546875 C 442.207031 290.085938 442.234375 289.625 442.261719 289.160156 C 442.457031 285.785156 442.664062 282.289062 444.007812 278.882812 C 444.261719 278.226562 444.585938 277.597656 444.957031 277.007812 C 448.242188 271.800781 454.691406 270.71875 459.21875 271.371094 C 462.769531 271.886719 465.46875 273.8125 466.441406 276.53125 C 467.480469 279.441406 467.28125 282.789062 465.898438 285.710938 C 463.816406 290.113281 459.285156 293.835938 453.457031 295.929688 C 451.792969 296.527344 450.085938 296.847656 448.394531 296.984375 C 448.726562 299.976562 449.507812 302.941406 450.664062 305.714844 C 450.816406 305.585938 450.96875 305.457031 451.121094 305.328125 C 453.046875 303.71875 455.402344 301.941406 458.28125 301 C 462.597656 299.589844 468.300781 300.316406 472.820312 302.851562 C 476.9375 305.164062 479.710938 308.972656 480.230469 313.035156 C 480.90625 318.285156 477.953125 324.015625 473.355469 326.371094 C 468.816406 328.691406 463.308594 327.671875 456.976562 323.34375 C 454.042969 321.339844 451.433594 318.761719 449.230469 315.730469 C 438.472656 327.742188 432.085938 344.964844 429.773438 368.082031 C 428.992188 375.851562 428.574219 387.664062 428.167969 399.085938 C 427.882812 407.148438 427.609375 414.765625 427.230469 420.386719 C 427.117188 422.019531 425.765625 423.265625 424.152344 423.265625 Z M 453.671875 311.292969 C 455.550781 314.058594 457.847656 316.457031 460.464844 318.242188 C 464.789062 321.199219 468.183594 322.082031 470.558594 320.867188 C 472.875 319.683594 474.476562 316.523438 474.128906 313.820312 C 473.859375 311.746094 472.167969 309.554688 469.820312 308.234375 C 466.78125 306.527344 462.921875 305.980469 460.214844 306.867188 C 458.332031 307.480469 456.574219 308.824219 455.097656 310.058594 C 454.617188 310.464844 454.144531 310.871094 453.679688 311.292969 Z M 456.8125 277.375 C 454.289062 277.375 451.496094 278.21875 450.183594 280.296875 C 450.015625 280.5625 449.871094 280.847656 449.753906 281.144531 C 448.773438 283.632812 448.605469 286.488281 448.429688 289.511719 C 448.402344 289.9375 448.382812 290.363281 448.351562 290.789062 C 449.402344 290.675781 450.40625 290.460938 451.378906 290.113281 C 455.617188 288.585938 458.964844 285.953125 460.332031 283.0625 C 461.019531 281.609375 461.132812 279.984375 460.640625 278.605469 C 460.488281 278.191406 459.59375 277.65625 458.347656 277.476562 C 457.859375 277.40625 457.339844 277.371094 456.808594 277.371094 Z M 425.25 269.34375 C 424.667969 269.34375 424.074219 269.4375 423.511719 269.628906 C 422.03125 270.144531 420.996094 271.308594 420.785156 275.308594 C 420.542969 279.71875 422.375 283.503906 425.808594 285.695312 C 426.304688 286.015625 426.816406 286.304688 427.347656 286.578125 C 429.59375 283.664062 431.4375 280.0625 431.011719 276.359375 C 430.757812 274.152344 429.78125 272.050781 428.253906 270.441406 C 427.578125 269.734375 426.441406 269.34375 425.25 269.34375 Z M 425.25 269.34375 " fill-opacity="1" fill-rule="nonzero"/><path fill="#001447" d="M 373.617188 231.992188 C 372.917969 231.992188 372.214844 231.753906 371.636719 231.273438 C 367.113281 227.484375 364.671875 223.371094 364.394531 219.050781 C 364.132812 215.039062 365.800781 210.964844 369.210938 207.261719 C 373.777344 202.3125 380.058594 199.527344 386.453125 199.605469 C 392.222656 199.683594 396.605469 201.972656 400.125 203.8125 C 401.328125 204.4375 402.464844 205.035156 403.484375 205.441406 C 405.0625 206.078125 405.832031 207.875 405.195312 209.460938 C 404.558594 211.042969 402.761719 211.804688 401.179688 211.171875 C 399.878906 210.648438 398.613281 209.984375 397.269531 209.289062 C 394.027344 207.59375 390.671875 205.839844 386.371094 205.78125 C 381.722656 205.710938 377.128906 207.78125 373.75 211.449219 C 371.476562 213.910156 370.402344 216.335938 370.550781 218.65625 C 370.714844 221.222656 372.414062 223.878906 375.597656 226.539062 C 376.902344 227.632812 377.078125 229.582031 375.984375 230.886719 C 375.371094 231.617188 374.496094 231.996094 373.617188 231.996094 Z M 373.617188 231.992188 " fill-opacity="1" fill-rule="nonzero"/><path fill="#001447" d="M 376.183594 250.394531 C 372.617188 250.394531 368.988281 249.417969 365.730469 247.4375 C 364.273438 246.554688 363.808594 244.65625 364.691406 243.199219 C 365.574219 241.742188 367.476562 241.277344 368.929688 242.164062 C 374.605469 245.609375 380.613281 244.304688 384.046875 241.480469 C 387.445312 238.683594 388.449219 234.488281 386.796875 229.96875 C 386.210938 228.363281 387.03125 226.59375 388.628906 226.003906 C 390.226562 225.421875 392 226.242188 392.589844 227.839844 C 395.160156 234.867188 393.429688 241.75 387.964844 246.246094 C 384.621094 249 380.445312 250.394531 376.183594 250.394531 Z M 376.183594 250.394531 " fill-opacity="1" fill-rule="nonzero"/><path fill="#001447" d="M 345.449219 259.421875 C 339.578125 259.421875 333.304688 255.660156 332.53125 249.035156 C 332.332031 247.34375 333.542969 245.808594 335.234375 245.609375 C 336.925781 245.410156 338.460938 246.625 338.65625 248.316406 C 339.039062 251.570312 342.6875 253.40625 345.84375 253.238281 C 347.785156 253.132812 352.316406 252.109375 352.394531 244.828125 C 352.414062 243.132812 353.792969 241.773438 355.480469 241.773438 C 355.492188 241.773438 355.503906 241.773438 355.515625 241.773438 C 357.222656 241.792969 358.585938 243.1875 358.570312 244.890625 C 358.453125 255.121094 351.820312 259.097656 346.175781 259.398438 C 345.9375 259.410156 345.695312 259.417969 345.457031 259.417969 Z M 345.449219 259.421875 " fill-opacity="1" fill-rule="nonzero"/><path fill="#001447" d="M 395.722656 295.441406 C 394.207031 295.441406 392.882812 294.324219 392.671875 292.78125 C 391.554688 284.746094 392.84375 279.90625 394.949219 276.992188 C 392.832031 275.910156 391.097656 274.429688 389.761719 272.558594 C 386.742188 268.328125 386.011719 262.527344 387.582031 255.308594 C 387.605469 255.199219 387.628906 255.109375 387.640625 255.039062 C 387.976562 253.371094 389.601562 252.285156 391.269531 252.621094 C 392.941406 252.957031 394.023438 254.585938 393.6875 256.253906 C 393.667969 256.347656 393.640625 256.472656 393.609375 256.621094 C 392.132812 263.398438 393.429688 267.074219 394.78125 268.96875 C 396.328125 271.136719 398.882812 272.40625 402.582031 272.839844 C 404.105469 273.019531 405.265625 274.285156 405.308594 275.820312 C 405.351562 277.355469 404.261719 278.683594 402.753906 278.949219 C 399.011719 279.601562 397.671875 283.96875 398.777344 291.929688 C 399.011719 293.617188 397.835938 295.175781 396.148438 295.410156 C 396.003906 295.429688 395.859375 295.441406 395.71875 295.441406 Z M 395.722656 295.441406 " fill-opacity="1" fill-rule="nonzero"/><path fill="#001447" d="M 346.996094 235.085938 C 345.355469 235.085938 343.992188 233.792969 343.917969 232.136719 C 343.636719 225.851562 345.90625 220.421875 350.488281 216.429688 C 355.96875 211.65625 363.640625 210.046875 368.386719 210.929688 C 370.0625 211.238281 371.171875 212.847656 370.859375 214.523438 C 370.546875 216.203125 368.941406 217.308594 367.265625 217 C 364.515625 216.488281 358.746094 217.421875 354.539062 221.085938 C 351.382812 223.839844 349.882812 227.460938 350.082031 231.863281 C 350.160156 233.5625 348.839844 235.007812 347.140625 235.085938 C 347.089844 235.085938 347.042969 235.085938 346.996094 235.085938 Z M 346.996094 235.085938 " fill-opacity="1" fill-rule="nonzero"/><path fill="#001447" d="M 369.023438 305.019531 C 368.742188 305.019531 368.457031 304.980469 368.171875 304.898438 C 366.535156 304.429688 365.589844 302.714844 366.058594 301.078125 C 368.949219 291.039062 368.28125 283.972656 364.125 280.652344 C 360.878906 278.058594 356.453125 278.515625 355.550781 279.011719 L 355.34375 279.136719 L 355.128906 279.226562 C 345.570312 283.203125 337.226562 281.871094 334.078125 281.113281 L 333.878906 281.066406 L 333.683594 280.992188 C 318.421875 275.054688 315.230469 264.378906 314.683594 258.542969 C 313.730469 248.355469 319.160156 237.726562 328.183594 232.097656 C 336.785156 226.738281 347.007812 226.90625 356.234375 232.5625 C 357.683594 233.453125 358.144531 235.355469 357.253906 236.808594 C 356.363281 238.257812 354.464844 238.71875 353.011719 237.828125 C 343.214844 231.816406 335.296875 234.941406 331.453125 237.339844 C 324.46875 241.691406 320.101562 250.175781 320.832031 257.96875 C 321.539062 265.539062 326.824219 271.636719 335.726562 275.15625 C 338.402344 275.773438 344.976562 276.707031 352.589844 273.59375 C 355.652344 271.929688 362.550781 271.695312 367.699219 275.613281 C 372.234375 279.058594 376.65625 286.570312 371.988281 302.785156 C 371.597656 304.136719 370.367188 305.015625 369.027344 305.015625 Z M 369.023438 305.019531 " fill-opacity="1" fill-rule="nonzero"/><path fill="#ffffff" d="M 348.523438 241.023438 C 347.234375 240.773438 345.953125 240.550781 344.679688 240.421875 C 343.40625 240.308594 342.144531 240.269531 340.910156 240.367188 C 338.445312 240.539062 336.105469 241.257812 334.214844 242.570312 C 333.265625 243.214844 332.429688 244 331.710938 244.878906 C 331 245.765625 330.414062 246.753906 329.953125 247.800781 C 329.03125 249.894531 328.628906 252.234375 328.742188 254.53125 C 328.789062 255.683594 328.972656 256.824219 329.300781 257.914062 C 329.613281 259.011719 330.070312 260.054688 330.648438 261.015625 C 331.820312 262.933594 333.546875 264.464844 335.65625 265.410156 C 336.710938 265.878906 337.851562 266.207031 339.042969 266.402344 C 340.230469 266.59375 341.46875 266.660156 342.714844 266.628906 C 345.222656 266.585938 347.765625 266.089844 350.328125 265.515625 C 349.191406 266.171875 348.019531 266.800781 346.777344 267.277344 C 346.167969 267.546875 345.527344 267.734375 344.890625 267.957031 C 344.246094 268.140625 343.597656 268.328125 342.929688 268.457031 C 341.597656 268.730469 340.226562 268.886719 338.824219 268.855469 C 337.421875 268.824219 336 268.609375 334.617188 268.164062 C 331.84375 267.296875 329.335938 265.398438 327.671875 262.953125 C 326.839844 261.730469 326.214844 260.382812 325.761719 258.996094 C 325.320312 257.601562 325.070312 256.15625 325.003906 254.707031 C 324.945312 253.257812 325.050781 251.808594 325.335938 250.386719 C 325.628906 248.96875 326.09375 247.582031 326.75 246.28125 C 327.410156 244.984375 328.222656 243.75 329.242188 242.691406 C 330.246094 241.625 331.425781 240.726562 332.707031 240.039062 C 333.992188 239.355469 335.375 238.886719 336.773438 238.648438 C 338.171875 238.40625 339.578125 238.386719 340.941406 238.53125 C 342.308594 238.679688 343.632812 238.984375 344.898438 239.402344 C 346.167969 239.824219 347.371094 240.390625 348.523438 241.023438 Z M 348.523438 241.023438 " fill-opacity="0.55" fill-rule="nonzero"/><path fill="#ffffff" d="M 315.507812 268.769531 C 314.839844 271.054688 314.476562 273.144531 314.40625 275.226562 C 314.328125 277.292969 314.527344 279.308594 315.011719 281.226562 C 315.503906 283.144531 316.273438 284.957031 317.414062 286.597656 C 317.984375 287.425781 318.652344 288.199219 319.421875 288.941406 C 320.191406 289.6875 321.066406 290.363281 322.039062 291.074219 C 319.652344 291.21875 317.171875 290.269531 315.253906 288.605469 C 313.328125 286.9375 311.992188 284.601562 311.382812 282.152344 C 310.761719 279.695312 310.824219 277.101562 311.511719 274.726562 C 311.863281 273.539062 312.367188 272.40625 313.035156 271.386719 C 313.707031 270.371094 314.519531 269.453125 315.503906 268.773438 Z M 315.507812 268.769531 " fill-opacity="0.55" fill-rule="nonzero"/><path fill="#ffffff" d="M 308.132812 297.507812 C 306.9375 299.832031 306.082031 302.132812 305.5625 304.492188 C 305.039062 306.851562 304.839844 309.238281 304.945312 311.609375 C 305.054688 313.984375 305.46875 316.339844 306.207031 318.636719 C 306.9375 320.941406 308.015625 323.148438 309.375 325.386719 C 307.136719 324.015625 305.339844 321.917969 304.089844 319.535156 C 302.84375 317.144531 302.144531 314.453125 302.027344 311.742188 C 301.90625 309.035156 302.359375 306.292969 303.378906 303.796875 C 304.40625 301.316406 305.996094 299.042969 308.132812 297.507812 Z M 308.132812 297.507812 " fill-opacity="0.55" fill-rule="nonzero"/><path fill="#ffffff" d="M 313.871094 339.355469 C 314.074219 341.109375 314.433594 342.703125 314.988281 344.210938 C 315.539062 345.71875 316.269531 347.125 317.15625 348.421875 C 318.042969 349.71875 319.082031 350.914062 320.289062 351.96875 C 321.488281 353.035156 322.851562 353.945312 324.394531 354.800781 C 322.621094 354.867188 320.832031 354.335938 319.253906 353.429688 C 317.675781 352.515625 316.308594 351.222656 315.277344 349.703125 C 314.246094 348.1875 313.539062 346.445312 313.261719 344.640625 C 312.988281 342.84375 313.136719 340.96875 313.871094 339.351562 Z M 313.871094 339.355469 " fill-opacity="0.55" fill-rule="nonzero"/><path fill="#ffffff" d="M 395.886719 214.15625 C 394.964844 213.128906 393.992188 212.242188 392.917969 211.585938 C 391.847656 210.925781 390.699219 210.484375 389.523438 210.273438 C 387.171875 209.835938 384.726562 210.253906 382.570312 211.25 C 380.421875 212.261719 378.542969 213.867188 377.429688 215.964844 C 376.867188 217.011719 376.503906 218.179688 376.375 219.433594 C 376.234375 220.683594 376.347656 222 376.582031 223.359375 C 375.773438 222.242188 375.214844 220.914062 374.980469 219.480469 C 374.746094 218.046875 374.882812 216.515625 375.371094 215.089844 C 375.855469 213.660156 376.695312 212.359375 377.730469 211.269531 C 377.984375 210.988281 378.277344 210.753906 378.546875 210.496094 C 378.835938 210.253906 379.136719 210.03125 379.429688 209.800781 C 379.738281 209.589844 380.0625 209.398438 380.375 209.195312 C 380.703125 209.015625 381.035156 208.84375 381.371094 208.671875 C 382.726562 208.050781 384.191406 207.652344 385.6875 207.546875 C 387.183594 207.4375 388.707031 207.617188 390.117188 208.121094 C 391.527344 208.621094 392.8125 209.449219 393.804688 210.507812 C 394.792969 211.566406 395.503906 212.824219 395.886719 214.148438 Z M 395.886719 214.15625 " fill-opacity="0.55" fill-rule="nonzero"/><path fill="#001447" d="M 364.363281 280.210938 C 364.222656 280.210938 364.074219 280.199219 363.929688 280.179688 C 362.246094 279.941406 361.070312 278.382812 361.308594 276.691406 C 362.898438 265.449219 367.808594 259.339844 371.964844 258.273438 C 373.613281 257.851562 375.273438 258.84375 375.699219 260.488281 C 376.128906 262.132812 375.136719 263.820312 373.496094 264.253906 C 372.378906 264.554688 368.710938 268.40625 367.417969 277.554688 C 367.199219 279.097656 365.878906 280.210938 364.367188 280.210938 Z M 364.363281 280.210938 " fill-opacity="1" fill-rule="nonzero"/><path fill="#001447" d="M 370.609375 297.613281 C 370.289062 297.613281 369.96875 297.5625 369.652344 297.457031 C 368.03125 296.929688 367.148438 295.183594 367.675781 293.566406 C 370.285156 285.582031 374.078125 284.355469 378.761719 283.582031 C 379.070312 283.53125 379.382812 283.484375 379.699219 283.425781 C 381.378906 283.125 382.980469 284.238281 383.28125 285.917969 C 383.582031 287.601562 382.46875 289.203125 380.789062 289.503906 C 380.441406 289.566406 380.101562 289.621094 379.765625 289.675781 C 376.53125 290.210938 375.191406 290.429688 373.542969 295.484375 C 373.117188 296.785156 371.90625 297.613281 370.609375 297.613281 Z M 370.609375 297.613281 " fill-opacity="1" fill-rule="nonzero"/><path fill="#001447" d="M 329.050781 334.667969 C 328.011719 334.667969 326.996094 334.140625 326.414062 333.1875 C 325.527344 331.730469 325.992188 329.832031 327.445312 328.941406 C 333.613281 325.179688 340.746094 319.296875 339.675781 312.640625 C 338.671875 306.371094 330.828125 301.429688 327.703125 300.699219 C 326.042969 300.3125 325.007812 298.652344 325.394531 296.992188 C 325.78125 295.332031 327.441406 294.296875 329.101562 294.683594 C 333.996094 295.824219 344.242188 302.167969 345.765625 311.660156 C 346.378906 315.488281 345.503906 319.300781 343.152344 322.988281 C 340.660156 326.894531 336.453125 330.671875 330.648438 334.214844 C 330.148438 334.519531 329.59375 334.664062 329.046875 334.664062 Z M 329.050781 334.667969 " fill-opacity="1" fill-rule="nonzero"/><path fill="#001447" d="M 359.316406 330.835938 C 350.671875 330.835938 340.355469 325.386719 339 324.648438 C 337.503906 323.835938 336.949219 321.960938 337.765625 320.460938 C 338.578125 318.964844 340.449219 318.410156 341.945312 319.222656 C 347.160156 322.054688 357.273438 325.925781 362.1875 324.265625 C 366.183594 322.921875 369.269531 318.746094 372.253906 314.710938 C 372.550781 314.3125 372.847656 313.910156 373.136719 313.519531 C 377.257812 308 383.519531 304.570312 390.324219 304.09375 C 394.191406 303.824219 398.398438 304.132812 402.824219 305.011719 C 404.496094 305.34375 405.582031 306.964844 405.253906 308.636719 C 404.921875 310.308594 403.296875 311.398438 401.628906 311.066406 C 397.734375 310.296875 394.074219 310.023438 390.75 310.253906 C 385.742188 310.601562 381.125 313.136719 378.082031 317.210938 C 377.792969 317.597656 377.507812 317.988281 377.21875 318.382812 C 373.832031 322.960938 369.992188 328.152344 364.164062 330.121094 C 362.667969 330.625 361.027344 330.835938 359.320312 330.835938 Z M 359.316406 330.835938 " fill-opacity="1" fill-rule="nonzero"/><path fill="#001447" d="M 394.335938 349.777344 C 392.773438 349.777344 391.113281 349.464844 389.382812 348.824219 C 387.785156 348.230469 386.96875 346.457031 387.558594 344.859375 C 388.148438 343.261719 389.921875 342.441406 391.519531 343.03125 C 396.023438 344.695312 397.40625 342.246094 397.863281 341.441406 C 399.738281 338.121094 398.972656 332.398438 396.367188 330.3125 C 393.128906 327.710938 387.796875 331.9375 385.65625 333.871094 C 384.394531 335.015625 382.441406 334.914062 381.296875 333.652344 C 380.15625 332.386719 380.257812 330.433594 381.519531 329.289062 C 391.460938 320.300781 397.910156 323.640625 400.222656 325.492188 C 405.171875 329.457031 406.601562 338.507812 403.230469 344.480469 C 401.269531 347.945312 398.105469 349.777344 394.328125 349.777344 Z M 394.335938 349.777344 " fill-opacity="1" fill-rule="nonzero"/><path fill="#001447" d="M 397.558594 369.765625 C 390.996094 369.765625 388.140625 366.921875 386.097656 363.730469 C 385.347656 362.550781 384.152344 361.753906 382.734375 361.480469 C 376.378906 360.242188 371.164062 355.867188 367.234375 348.480469 L 367.097656 348.222656 C 366.285156 346.722656 366.835938 344.847656 368.332031 344.035156 C 369.828125 343.21875 371.703125 343.769531 372.519531 345.269531 C 372.5625 345.351562 372.617188 345.457031 372.683594 345.582031 C 375.699219 351.246094 379.476562 354.558594 383.914062 355.421875 C 386.960938 356.015625 389.648438 357.832031 391.296875 360.40625 C 392.515625 362.316406 393.902344 364.476562 401.425781 363.246094 C 403.105469 362.972656 404.691406 364.113281 404.96875 365.796875 C 405.242188 367.480469 404.101562 369.066406 402.421875 369.339844 C 400.605469 369.636719 399 369.773438 397.566406 369.773438 Z M 397.558594 369.765625 " fill-opacity="1" fill-rule="nonzero"/><path fill="#001447" d="M 380.835938 383.03125 C 376.585938 383.03125 372.660156 381.84375 369.234375 379.496094 C 364.882812 376.507812 362.492188 372.484375 361.472656 370.761719 C 361.355469 370.5625 361.265625 370.40625 361.191406 370.300781 C 360.253906 368.875 360.648438 366.960938 362.070312 366.023438 C 363.492188 365.082031 365.402344 365.476562 366.34375 366.898438 C 366.453125 367.066406 366.59375 367.304688 366.773438 367.609375 C 368.574219 370.636719 374.042969 379.859375 386.910156 375.867188 C 388.535156 375.363281 390.265625 376.273438 390.769531 377.898438 C 391.273438 379.527344 390.363281 381.257812 388.738281 381.761719 C 386.011719 382.609375 383.367188 383.027344 380.835938 383.027344 Z M 380.835938 383.03125 " fill-opacity="1" fill-rule="nonzero"/><path fill="#001447" d="M 381.855469 422.339844 C 380.625 422.339844 379.457031 421.59375 378.980469 420.371094 C 377.226562 415.855469 377.21875 403.636719 383.453125 396.375 C 386.574219 392.738281 392.5 388.898438 403.007812 391.253906 C 404.671875 391.625 405.71875 393.273438 405.347656 394.9375 C 404.972656 396.601562 403.324219 397.648438 401.664062 397.277344 C 395.625 395.925781 391.074219 396.972656 388.136719 400.394531 C 383.488281 405.8125 383.785156 415.695312 384.734375 418.132812 C 385.351562 419.722656 384.566406 421.511719 382.976562 422.128906 C 382.609375 422.273438 382.230469 422.339844 381.859375 422.339844 Z M 381.855469 422.339844 " fill-opacity="1" fill-rule="nonzero"/><path fill="#001447" d="M 371.265625 423.441406 C 370.664062 423.441406 370.058594 423.265625 369.523438 422.902344 C 369.117188 422.621094 368.617188 422.308594 368.09375 421.972656 C 365.324219 420.214844 361.136719 417.554688 358.109375 412.738281 C 354.574219 407.105469 353.457031 399.792969 354.796875 391 C 355.050781 389.3125 356.625 388.15625 358.308594 388.410156 C 359.996094 388.667969 361.148438 390.242188 360.894531 391.929688 C 358.375 408.492188 366.210938 413.46875 371.394531 416.761719 C 371.964844 417.125 372.507812 417.464844 373.003906 417.808594 C 374.40625 418.769531 374.769531 420.691406 373.808594 422.097656 C 373.210938 422.972656 372.242188 423.445312 371.257812 423.445312 Z M 371.265625 423.441406 " fill-opacity="1" fill-rule="nonzero"/><path fill="#001447" d="M 357.914062 394.550781 C 355.738281 394.550781 352.972656 394.300781 350.242188 393.21875 C 346.523438 391.742188 341.710938 388.214844 339.914062 379.789062 C 339.558594 378.121094 340.617188 376.480469 342.289062 376.121094 C 343.953125 375.765625 345.59375 376.828125 345.949219 378.496094 C 347.960938 387.910156 354.40625 388.714844 360.441406 388.257812 C 360.886719 388.226562 361.269531 388.199219 361.605469 388.191406 C 361.621094 388.191406 361.636719 388.191406 361.65625 388.191406 C 363.339844 388.191406 364.710938 389.539062 364.742188 391.230469 C 364.765625 392.933594 363.410156 394.339844 361.707031 394.363281 C 361.554688 394.363281 361.242188 394.390625 360.910156 394.417969 C 360.167969 394.472656 359.132812 394.550781 357.921875 394.550781 Z M 357.914062 394.550781 " fill-opacity="1" fill-rule="nonzero"/><path fill="#001447" d="M 340.769531 382.226562 C 339.132812 382.226562 337.453125 381.984375 335.800781 381.480469 C 329.507812 379.5625 323.0625 373.371094 323.84375 361.742188 L 323.855469 361.578125 L 323.882812 361.414062 C 325.058594 354.734375 328.113281 349.777344 332.964844 346.675781 C 341.363281 341.308594 352.351562 343.40625 356.683594 344.558594 C 358.328125 344.996094 359.308594 346.683594 358.871094 348.332031 C 358.433594 349.980469 356.742188 350.960938 355.097656 350.523438 C 352.332031 349.789062 342.796875 347.710938 336.285156 351.878906 C 332.984375 353.988281 330.867188 357.5 329.984375 362.320312 C 329.398438 372.007812 335.101562 374.816406 337.59375 375.574219 C 341.558594 376.78125 345.402344 375.546875 346.503906 373.632812 C 347.71875 371.527344 346.023438 368 341.960938 364.199219 C 340.71875 363.035156 340.652344 361.082031 341.816406 359.835938 C 342.984375 358.589844 344.933594 358.527344 346.175781 359.691406 C 355.261719 368.195312 353.167969 374.433594 351.847656 376.71875 C 349.839844 380.195312 345.507812 382.222656 340.769531 382.222656 Z M 340.769531 382.226562 " fill-opacity="1" fill-rule="nonzero"/><path fill="#001447" d="M 326.335938 364.386719 C 320.71875 364.386719 312.65625 360.597656 308.011719 353.777344 C 303.609375 347.320312 303.269531 339.558594 307.042969 331.925781 L 307.214844 331.574219 L 307.472656 331.28125 C 315.558594 321.898438 314.808594 317.902344 314.578125 317.195312 C 314.4375 316.773438 314.21875 316.554688 313.867188 316.472656 C 312.203125 316.09375 311.164062 314.441406 311.539062 312.777344 C 311.917969 311.113281 313.570312 310.074219 315.234375 310.449219 C 317.71875 311.015625 319.617188 312.769531 320.4375 315.265625 C 321.558594 318.675781 321.058594 324.855469 312.40625 335.003906 C 309.753906 340.578125 309.992188 345.726562 313.105469 350.300781 C 316.859375 355.8125 323.574219 358.464844 326.78125 358.191406 C 328.476562 358.046875 329.972656 359.304688 330.121094 361.003906 C 330.265625 362.707031 329.007812 364.199219 327.308594 364.347656 C 326.992188 364.371094 326.664062 364.386719 326.332031 364.386719 Z M 326.335938 364.386719 " fill-opacity="1" fill-rule="nonzero"/><path fill="#001447" d="M 317.710938 338.882812 C 309.746094 338.882812 300.550781 332.269531 296.125 323.082031 C 290.464844 311.347656 293.640625 298.367188 304.820312 287.46875 C 306.042969 286.28125 307.996094 286.304688 309.183594 287.527344 C 310.371094 288.75 310.34375 290.703125 309.125 291.890625 C 296.582031 304.113281 299.074219 314.996094 301.675781 320.398438 C 305.59375 328.519531 313.617188 333.289062 318.652344 332.648438 C 320.34375 332.433594 321.886719 333.628906 322.101562 335.320312 C 322.316406 337.011719 321.121094 338.554688 319.429688 338.769531 C 318.863281 338.839844 318.289062 338.875 317.707031 338.875 Z M 317.710938 338.882812 " fill-opacity="1" fill-rule="nonzero"/><path fill="#001447" d="M 319.554688 300.78125 C 319.285156 300.78125 319.007812 300.742188 318.734375 300.667969 C 305.171875 296.9375 300.976562 286.417969 301.570312 277.820312 C 302.277344 267.636719 309.175781 259.117188 317.625 258.011719 C 319.3125 257.789062 320.863281 258.976562 321.082031 260.671875 C 321.304688 262.359375 320.117188 263.910156 318.425781 264.132812 C 312.921875 264.851562 308.222656 271.054688 307.726562 278.246094 C 307.457031 282.074219 308.160156 291.351562 320.367188 294.714844 C 322.007812 295.167969 322.972656 296.867188 322.523438 298.511719 C 322.144531 299.882812 320.90625 300.78125 319.550781 300.78125 Z M 319.554688 300.78125 " fill-opacity="1" fill-rule="nonzero"/><path fill="#001447" d="M 414.585938 423.257812 C 414.566406 423.257812 414.550781 423.257812 414.53125 423.257812 C 412.824219 423.230469 411.472656 421.824219 411.5 420.117188 L 413.242188 320.933594 C 413.269531 319.246094 414.648438 317.902344 416.324219 317.902344 C 416.34375 317.902344 416.359375 317.902344 416.378906 317.902344 C 418.085938 317.929688 419.4375 319.335938 419.410156 321.042969 L 417.667969 420.226562 C 417.640625 421.914062 416.261719 423.257812 414.585938 423.257812 Z M 414.585938 423.257812 " fill-opacity="1" fill-rule="nonzero"/><path fill="#001447" d="M 341.832031 308.664062 C 340.953125 308.664062 340.078125 308.285156 339.464844 307.558594 C 338.371094 306.25 338.542969 304.304688 339.851562 303.210938 C 343.503906 300.148438 345.886719 297.902344 345.699219 294.707031 C 345.601562 293.003906 346.894531 291.542969 348.597656 291.445312 C 350.292969 291.34375 351.757812 292.640625 351.855469 294.34375 C 352.242188 300.878906 347.566406 304.800781 343.808594 307.945312 C 343.234375 308.429688 342.53125 308.667969 341.832031 308.667969 Z M 341.832031 308.664062 " fill-opacity="1" fill-rule="nonzero"/><path fill="#001447" d="M 421.796875 318.371094 C 421.796875 318.738281 421.761719 319.105469 421.6875 319.464844 C 421.617188 319.824219 421.511719 320.175781 421.371094 320.515625 C 421.230469 320.855469 421.058594 321.175781 420.855469 321.484375 C 420.648438 321.789062 420.417969 322.070312 420.15625 322.332031 C 419.898438 322.589844 419.617188 322.824219 419.308594 323.027344 C 419.003906 323.230469 418.683594 323.40625 418.34375 323.546875 C 418.003906 323.6875 417.652344 323.792969 417.292969 323.863281 C 416.933594 323.933594 416.570312 323.972656 416.203125 323.972656 C 415.835938 323.972656 415.472656 323.933594 415.109375 323.863281 C 414.75 323.792969 414.398438 323.6875 414.0625 323.546875 C 413.722656 323.40625 413.398438 323.230469 413.09375 323.027344 C 412.789062 322.824219 412.503906 322.589844 412.246094 322.332031 C 411.984375 322.070312 411.753906 321.789062 411.550781 321.484375 C 411.347656 321.175781 411.171875 320.855469 411.03125 320.515625 C 410.890625 320.175781 410.785156 319.824219 410.714844 319.464844 C 410.644531 319.105469 410.605469 318.738281 410.605469 318.371094 C 410.605469 318.003906 410.644531 317.640625 410.714844 317.28125 C 410.785156 316.917969 410.890625 316.570312 411.03125 316.230469 C 411.171875 315.890625 411.347656 315.566406 411.550781 315.261719 C 411.753906 314.957031 411.984375 314.671875 412.246094 314.414062 C 412.503906 314.152344 412.789062 313.921875 413.09375 313.71875 C 413.398438 313.511719 413.722656 313.339844 414.0625 313.199219 C 414.398438 313.058594 414.75 312.953125 415.109375 312.882812 C 415.472656 312.808594 415.835938 312.773438 416.203125 312.773438 C 416.570312 312.773438 416.933594 312.808594 417.292969 312.882812 C 417.652344 312.953125 418.003906 313.058594 418.34375 313.199219 C 418.683594 313.339844 419.003906 313.511719 419.308594 313.71875 C 419.617188 313.921875 419.898438 314.152344 420.15625 314.414062 C 420.417969 314.671875 420.648438 314.957031 420.855469 315.261719 C 421.058594 315.566406 421.230469 315.890625 421.371094 316.230469 C 421.511719 316.570312 421.617188 316.917969 421.6875 317.28125 C 421.761719 317.640625 421.796875 318.003906 421.796875 318.371094 Z M 421.796875 318.371094 " fill-opacity="1" fill-rule="nonzero"/><path fill="#e00051" d="M 449.628906 426.746094 C 449.6875 427.046875 449.878906 427.699219 449.824219 428.015625 C 448.832031 433.601562 448.78125 438.429688 441.34375 439.589844 C 417.191406 443.339844 396.207031 444.148438 372.039062 439.695312 C 364.601562 438.324219 364.722656 433.609375 364 428.003906 C 363.957031 427.6875 364.085938 426.996094 364.210938 426.71875 C 366.402344 421.84375 367.683594 416.855469 374.878906 418.253906 C 398.25 422.785156 415.855469 421.808594 439.277344 417.75 C 440.523438 417.539062 441.128906 417.769531 441.792969 417.71875 C 442.292969 417.679688 441.886719 417.710938 441.890625 417.710938 C 446.851562 418.25 448.777344 422.308594 449.628906 426.75 Z M 449.628906 426.746094 " fill-opacity="1" fill-rule="nonzero"/><path fill="#001447" d="M 449.636719 426.742188 C 449.636719 427.066406 449.882812 427.699219 449.828125 428.011719 C 448.824219 433.605469 448.78125 438.433594 441.34375 439.589844 C 417.1875 443.335938 396.214844 444.160156 372.039062 439.6875 C 364.59375 438.3125 364.75 433.628906 363.988281 427.992188 C 363.945312 427.671875 364.203125 427.054688 364.234375 426.738281 C 364.382812 425.332031 365.011719 424.070312 365.445312 422.832031 C 367.132812 427.566406 367.128906 431.152344 373.445312 432.390625 C 397.121094 437.027344 417.53125 436.09375 441.191406 432.03125 C 446.667969 431.085938 446.992188 428.515625 449.25 424.570312 C 449.285156 425.273438 449.640625 425.980469 449.640625 426.738281 Z M 449.636719 426.742188 " fill-opacity="0.42" fill-rule="nonzero"/><path fill="#ffb401" d="M 451.074219 427.292969 C 451.003906 426.984375 451.0625 426.292969 450.957031 426.011719 C 449.015625 421.125 447.570312 415.867188 440.507812 417.054688 C 417.5625 420.90625 399.367188 422.523438 376.285156 417.949219 C 369.179688 416.539062 367.789062 421.476562 365.632812 426.335938 C 365.515625 426.613281 365.535156 427.3125 365.472656 427.617188 C 365.195312 428.964844 365.394531 430.339844 365.480469 431.609375 C 368.355469 427.722656 369.566406 424.078125 375.773438 425.320312 C 399.019531 429.964844 418.746094 428.460938 441.863281 424.316406 C 447.21875 423.355469 448.289062 426.5 451.1875 429.503906 C 451.082031 428.832031 451.242188 428.023438 451.074219 427.292969 Z M 451.074219 427.292969 " fill-opacity="0.6" fill-rule="nonzero"/><path fill="#ffffff" d="M 366.828125 433.238281 C 366.828125 433.238281 365.898438 419.363281 417.007812 422.847656 C 417.007812 422.847656 378.640625 418.617188 378.394531 418.617188 C 378.148438 418.617188 368.941406 418.800781 368.941406 418.800781 C 368.941406 418.800781 365.769531 425.710938 365.648438 427.140625 C 365.523438 428.570312 366.019531 433.300781 366.082031 433.609375 C 366.144531 433.917969 366.828125 433.234375 366.828125 433.234375 Z M 366.828125 433.238281 " fill-opacity="0.55" fill-rule="nonzero"/><path fill="#001447" d="M 404.6875 445.796875 C 393.355469 445.796875 382.585938 444.773438 371.484375 442.726562 C 361.605469 441.578125 359.351562 429.742188 362.019531 424.03125 C 363.9375 419.582031 366.554688 413.480469 375.46875 415.214844 C 400.242188 420.449219 418.617188 417.566406 441.734375 414.621094 C 448.429688 414.511719 453.808594 422.515625 452.609375 430.046875 C 451.789062 435.035156 450.773438 441.246094 441.820312 442.636719 C 428.253906 444.746094 416.183594 445.796875 404.6875 445.796875 Z M 367.09375 427.839844 C 367.695312 432.703125 367.566406 436.011719 372.597656 436.65625 C 394.234375 440.644531 414.652344 440.609375 440.871094 436.535156 C 448.582031 436.425781 447.957031 421.171875 441.785156 420.804688 C 418.246094 423.972656 399.71875 426.554688 374.292969 421.277344 C 370.058594 420.019531 368.941406 423.492188 367.09375 427.839844 Z M 446.757812 428.054688 Z M 367.039062 427.953125 L 367.027344 427.988281 C 367.027344 427.988281 367.039062 427.96875 367.039062 427.953125 Z M 367.078125 427.929688 Z M 446.785156 427.476562 Z M 446.785156 427.476562 " fill-opacity="1" fill-rule="nonzero"/><path fill="#e00051" d="M 449.628906 450.140625 C 449.6875 450.445312 449.878906 451.09375 449.824219 451.414062 C 448.832031 457 448.78125 461.828125 441.34375 462.984375 C 417.191406 466.738281 396.207031 467.542969 372.039062 463.089844 C 364.601562 461.71875 364.722656 457.003906 364 451.398438 C 363.957031 451.085938 364.085938 450.394531 364.210938 450.117188 C 366.402344 445.238281 367.683594 440.25 374.878906 441.648438 C 398.25 446.179688 415.855469 445.203125 439.277344 441.148438 C 440.523438 440.933594 441.128906 441.167969 441.792969 441.117188 C 442.292969 441.078125 441.886719 441.109375 441.890625 441.109375 C 446.851562 441.644531 448.777344 445.703125 449.628906 450.144531 Z M 449.628906 450.140625 " fill-opacity="1" fill-rule="nonzero"/><path fill="#001447" d="M 449.636719 450.140625 C 449.636719 450.460938 449.882812 451.09375 449.828125 451.410156 C 448.824219 457.003906 448.78125 461.832031 441.34375 462.984375 C 417.1875 466.730469 396.214844 467.554688 372.039062 463.085938 C 364.59375 461.707031 364.75 457.023438 363.988281 451.386719 C 363.945312 451.070312 364.203125 450.453125 364.234375 450.132812 C 364.382812 448.730469 365.011719 447.464844 365.445312 446.226562 C 367.132812 450.960938 367.128906 454.546875 373.445312 455.785156 C 397.121094 460.425781 417.53125 459.492188 441.191406 455.425781 C 446.667969 454.484375 446.992188 451.914062 449.25 447.964844 C 449.285156 448.671875 449.640625 449.375 449.640625 450.136719 Z M 449.636719 450.140625 " fill-opacity="0.42" fill-rule="nonzero"/><path fill="#ffb401" d="M 451.074219 450.6875 C 451.003906 450.378906 451.0625 449.6875 450.957031 449.40625 C 449.015625 444.519531 447.570312 439.261719 440.507812 440.449219 C 417.5625 444.304688 399.367188 445.921875 376.285156 441.347656 C 369.179688 439.9375 367.789062 444.871094 365.632812 449.734375 C 365.515625 450.007812 365.535156 450.707031 365.472656 451.011719 C 365.195312 452.363281 365.394531 453.738281 365.480469 455.003906 C 368.355469 451.117188 369.566406 447.476562 375.773438 448.714844 C 399.019531 453.363281 418.746094 451.859375 441.863281 447.710938 C 447.21875 446.75 448.289062 449.894531 451.1875 452.902344 C 451.082031 452.230469 451.242188 451.417969 451.074219 450.6875 Z M 451.074219 450.6875 " fill-opacity="0.6" fill-rule="nonzero"/><path fill="#ffffff" d="M 366.914062 458.375 C 366.914062 458.375 365.980469 444.5 417.089844 447.984375 C 417.089844 447.984375 378.726562 443.753906 378.480469 443.753906 C 378.234375 443.753906 369.027344 443.9375 369.027344 443.9375 C 369.027344 443.9375 365.855469 450.847656 365.730469 452.277344 C 365.609375 453.707031 366.105469 458.4375 366.167969 458.746094 C 366.230469 459.054688 366.914062 458.375 366.914062 458.375 Z M 366.914062 458.375 " fill-opacity="0.55" fill-rule="nonzero"/><path fill="#001447" d="M 404.6875 469.195312 C 393.355469 469.195312 382.585938 468.171875 371.484375 466.125 C 361.605469 464.972656 359.351562 453.136719 362.019531 447.429688 C 363.9375 442.976562 366.554688 436.878906 375.46875 438.609375 C 400.242188 443.84375 418.617188 440.960938 441.734375 438.019531 C 448.429688 437.90625 453.808594 445.910156 452.609375 453.445312 C 451.789062 458.433594 450.773438 464.640625 441.820312 466.03125 C 428.253906 468.140625 416.183594 469.195312 404.6875 469.195312 Z M 367.09375 451.234375 C 367.695312 456.097656 367.566406 459.40625 372.597656 460.054688 C 394.234375 464.039062 414.652344 464.003906 440.871094 459.933594 C 448.582031 459.824219 447.957031 444.570312 441.785156 444.203125 C 418.246094 447.367188 399.71875 449.949219 374.292969 444.671875 C 370.058594 443.417969 368.941406 446.890625 367.09375 451.234375 Z M 446.757812 451.453125 Z M 367.039062 451.351562 L 367.027344 451.382812 C 367.027344 451.382812 367.039062 451.363281 367.039062 451.351562 Z M 367.078125 451.324219 Z M 446.785156 450.875 Z M 446.785156 450.875 " fill-opacity="1" fill-rule="nonzero"/><path fill="#e00051" d="M 449.628906 473.539062 C 449.6875 473.839844 449.878906 474.492188 449.824219 474.808594 C 448.832031 480.394531 448.78125 485.222656 441.34375 486.378906 C 417.191406 490.132812 396.207031 490.941406 372.039062 486.488281 C 364.601562 485.117188 364.722656 480.402344 364 474.796875 C 363.957031 474.480469 364.085938 473.789062 364.210938 473.511719 C 366.402344 468.636719 367.683594 463.648438 374.878906 465.042969 C 398.25 469.578125 415.855469 468.597656 439.277344 464.542969 C 440.523438 464.328125 441.128906 464.5625 441.792969 464.511719 C 442.292969 464.472656 441.886719 464.503906 441.890625 464.503906 C 446.851562 465.042969 448.777344 469.101562 449.628906 473.542969 Z M 449.628906 473.539062 " fill-opacity="1" fill-rule="nonzero"/><path fill="#001447" d="M 449.636719 473.535156 C 449.636719 473.855469 449.882812 474.492188 449.828125 474.804688 C 448.824219 480.398438 448.78125 485.226562 441.34375 486.378906 C 417.1875 490.128906 396.214844 490.953125 372.039062 486.480469 C 364.59375 485.105469 364.75 480.421875 363.988281 474.785156 C 363.945312 474.464844 364.203125 473.847656 364.234375 473.527344 C 364.382812 472.125 365.011719 470.859375 365.445312 469.625 C 367.132812 474.359375 367.128906 477.945312 373.445312 479.183594 C 397.121094 483.820312 417.53125 482.886719 441.191406 478.824219 C 446.667969 477.878906 446.992188 475.308594 449.25 471.363281 C 449.285156 472.066406 449.640625 472.773438 449.640625 473.53125 Z M 449.636719 473.535156 " fill-opacity="0.42" fill-rule="nonzero"/><path fill="#ffb401" d="M 451.074219 474.085938 C 451.003906 473.777344 451.0625 473.082031 450.957031 472.804688 C 449.015625 467.917969 447.570312 462.660156 440.507812 463.84375 C 417.5625 467.699219 399.367188 469.316406 376.285156 464.742188 C 369.179688 463.332031 367.789062 468.269531 365.632812 473.128906 C 365.515625 473.40625 365.535156 474.105469 365.472656 474.410156 C 365.195312 475.757812 365.394531 477.132812 365.480469 478.398438 C 368.355469 474.511719 369.566406 470.871094 375.773438 472.113281 C 399.019531 476.757812 418.746094 475.253906 441.863281 471.109375 C 447.21875 470.144531 448.289062 473.292969 451.1875 476.296875 C 451.082031 475.625 451.242188 474.816406 451.074219 474.085938 Z M 451.074219 474.085938 " fill-opacity="0.6" fill-rule="nonzero"/><path fill="#ffffff" d="M 367.894531 480.636719 C 367.894531 480.636719 366.960938 466.761719 418.074219 470.242188 C 418.074219 470.242188 379.707031 466.011719 379.460938 466.011719 C 379.214844 466.011719 370.007812 466.199219 370.007812 466.199219 C 370.007812 466.199219 366.835938 473.105469 366.710938 474.535156 C 366.589844 475.964844 367.085938 480.699219 367.148438 481.007812 C 367.210938 481.316406 367.894531 480.632812 367.894531 480.632812 Z M 367.894531 480.636719 " fill-opacity="0.55" fill-rule="nonzero"/><path fill="#001447" d="M 404.6875 492.589844 C 393.355469 492.589844 382.585938 491.566406 371.484375 489.519531 C 361.605469 488.371094 359.351562 476.535156 362.019531 470.824219 C 363.9375 466.375 366.554688 460.273438 375.46875 462.007812 C 400.242188 467.242188 418.617188 464.359375 441.734375 461.414062 C 448.429688 461.304688 453.808594 469.308594 452.609375 476.839844 C 451.789062 481.828125 450.773438 488.039062 441.820312 489.429688 C 428.253906 491.539062 416.183594 492.589844 404.6875 492.589844 Z M 367.09375 474.628906 C 367.695312 479.496094 367.566406 482.804688 372.597656 483.449219 C 394.234375 487.4375 414.652344 487.402344 440.871094 483.328125 C 448.582031 483.21875 447.957031 467.964844 441.785156 467.597656 C 418.246094 470.765625 399.71875 473.347656 374.292969 468.070312 C 370.058594 466.8125 368.941406 470.285156 367.09375 474.628906 Z M 446.757812 474.847656 Z M 367.039062 474.746094 L 367.027344 474.78125 C 367.027344 474.78125 367.039062 474.761719 367.039062 474.746094 Z M 367.078125 474.722656 Z M 446.785156 474.269531 Z M 446.785156 474.269531 " fill-opacity="1" fill-rule="nonzero"/><path fill="#001447" d="M 430.503906 420.421875 C 430.503906 420.421875 437.589844 437.097656 400.285156 440.460938 C 399.289062 445.3125 437.589844 443.199219 437.589844 443.199219 C 437.589844 443.199219 447.664062 431.996094 447.914062 431.996094 C 448.164062 431.996094 447.914062 419.71875 447.914062 419.71875 Z M 430.503906 420.421875 " fill-opacity="0.29" fill-rule="nonzero"/><path fill="#001447" d="M 430.253906 444.152344 C 430.253906 444.152344 437.339844 460.828125 400.035156 464.1875 C 399.039062 469.042969 437.339844 466.925781 437.339844 466.925781 C 437.339844 466.925781 447.414062 455.726562 447.664062 455.726562 C 447.914062 455.726562 447.664062 443.445312 447.664062 443.445312 Z M 430.253906 444.152344 " fill-opacity="0.29" fill-rule="nonzero"/><path fill="#ffb401" d="M 287.816406 403.5625 C 286.847656 403.5625 285.886719 403.105469 285.289062 402.25 C 284.3125 400.859375 284.648438 398.929688 286.042969 397.953125 L 311.101562 380.351562 C 312.5 379.371094 314.421875 379.710938 315.398438 381.105469 C 316.375 382.5 316.042969 384.429688 314.644531 385.40625 L 289.585938 403.003906 C 289.046875 403.386719 288.429688 403.566406 287.816406 403.566406 Z M 287.816406 403.5625 " fill-opacity="1" fill-rule="nonzero"/><path fill="#ffb401" d="M 266.429688 369.988281 C 265.167969 369.988281 263.988281 369.210938 263.53125 367.960938 C 262.949219 366.359375 263.773438 364.585938 265.371094 364 L 294.125 353.488281 C 295.726562 352.90625 297.496094 353.730469 298.082031 355.328125 C 298.664062 356.929688 297.839844 358.703125 296.242188 359.285156 L 267.488281 369.800781 C 267.136719 369.925781 266.777344 369.988281 266.429688 369.988281 Z M 266.429688 369.988281 " fill-opacity="1" fill-rule="nonzero"/><path fill="#ffb401" d="M 254.449219 332.015625 C 252.867188 332.015625 251.523438 330.804688 251.382812 329.199219 C 251.230469 327.5 252.484375 326.003906 254.179688 325.851562 L 284.671875 323.148438 C 286.367188 322.996094 287.867188 324.253906 288.019531 325.949219 C 288.167969 327.648438 286.914062 329.148438 285.21875 329.296875 L 254.726562 332 C 254.632812 332.011719 254.539062 332.015625 254.449219 332.015625 Z M 254.449219 332.015625 " fill-opacity="1" fill-rule="nonzero"/><g clip-path="url(#6f651b199a)"><path fill="#ffb401" d="M 282.867188 297.519531 C 282.691406 297.519531 282.511719 297.503906 282.332031 297.476562 L 252.175781 292.1875 C 250.496094 291.890625 249.378906 290.292969 249.667969 288.613281 C 249.960938 286.933594 251.5625 285.808594 253.242188 286.105469 L 283.398438 291.390625 C 285.078125 291.6875 286.195312 293.285156 285.90625 294.964844 C 285.640625 296.464844 284.339844 297.519531 282.867188 297.519531 Z M 282.867188 297.519531 " fill-opacity="1" fill-rule="nonzero"/></g><path fill="#ffb401" d="M 289.070312 266.273438 C 288.636719 266.273438 288.195312 266.179688 287.773438 265.984375 L 260.011719 253.066406 C 258.464844 252.347656 257.796875 250.511719 258.515625 248.964844 C 259.234375 247.421875 261.066406 246.75 262.613281 247.46875 L 290.371094 260.386719 C 291.917969 261.105469 292.585938 262.941406 291.871094 264.484375 C 291.347656 265.609375 290.234375 266.273438 289.070312 266.273438 Z M 289.070312 266.273438 " fill-opacity="1" fill-rule="nonzero"/><path fill="#ffb401" d="M 303.148438 237.699219 C 302.453125 237.699219 301.75 237.464844 301.171875 236.980469 L 277.699219 217.3125 C 276.394531 216.21875 276.222656 214.273438 277.3125 212.964844 C 278.40625 211.660156 280.351562 211.488281 281.65625 212.578125 L 305.128906 232.246094 C 306.4375 233.339844 306.609375 235.285156 305.515625 236.59375 C 304.90625 237.320312 304.03125 237.699219 303.148438 237.699219 Z M 303.148438 237.699219 " fill-opacity="1" fill-rule="nonzero"/><path fill="#ffb401" d="M 324.144531 213.75 C 323.171875 213.75 322.214844 213.289062 321.617188 212.4375 L 304.03125 187.359375 C 303.050781 185.964844 303.386719 184.039062 304.785156 183.0625 C 306.175781 182.082031 308.101562 182.417969 309.078125 183.816406 L 326.664062 208.890625 C 327.644531 210.285156 327.308594 212.210938 325.914062 213.191406 C 325.375 213.570312 324.757812 213.753906 324.144531 213.753906 Z M 324.144531 213.75 " fill-opacity="1" fill-rule="nonzero"/><path fill="#ffb401" d="M 350.605469 196.046875 C 349.347656 196.046875 348.164062 195.269531 347.710938 194.019531 L 337.207031 165.242188 C 336.621094 163.636719 337.445312 161.867188 339.042969 161.28125 C 340.644531 160.699219 342.414062 161.523438 343 163.121094 L 353.503906 191.898438 C 354.085938 193.5 353.261719 195.273438 351.664062 195.855469 C 351.316406 195.984375 350.957031 196.046875 350.605469 196.046875 Z M 350.605469 196.046875 " fill-opacity="1" fill-rule="nonzero"/><path fill="#ffb401" d="M 387.664062 184.4375 C 386.222656 184.4375 384.9375 183.429688 384.644531 181.964844 L 378.554688 151.941406 C 378.21875 150.269531 379.296875 148.640625 380.964844 148.300781 C 382.636719 147.960938 384.261719 149.042969 384.601562 150.710938 L 390.6875 180.738281 C 391.027344 182.40625 389.949219 184.039062 388.28125 184.375 C 388.070312 184.417969 387.867188 184.4375 387.664062 184.4375 Z M 387.664062 184.4375 " fill-opacity="1" fill-rule="nonzero"/><path fill="#ffb401" d="M 521.929688 403.5625 C 521.316406 403.5625 520.699219 403.382812 520.160156 403.003906 L 495.105469 385.402344 C 493.710938 384.425781 493.375 382.496094 494.351562 381.105469 C 495.328125 379.710938 497.253906 379.371094 498.644531 380.351562 L 523.703125 397.949219 C 525.097656 398.925781 525.433594 400.855469 524.457031 402.25 C 523.855469 403.101562 522.902344 403.5625 521.929688 403.5625 Z M 521.929688 403.5625 " fill-opacity="1" fill-rule="nonzero"/><path fill="#ffb401" d="M 543.320312 369.988281 C 542.96875 369.988281 542.613281 369.925781 542.261719 369.800781 L 513.503906 359.285156 C 511.90625 358.703125 511.082031 356.929688 511.667969 355.328125 C 512.25 353.726562 514.023438 352.90625 515.621094 353.488281 L 544.378906 364 C 545.980469 364.585938 546.800781 366.359375 546.21875 367.960938 C 545.757812 369.210938 544.578125 369.988281 543.320312 369.988281 Z M 543.320312 369.988281 " fill-opacity="1" fill-rule="nonzero"/><path fill="#ffb401" d="M 555.300781 332.015625 C 555.207031 332.015625 555.117188 332.011719 555.023438 332 L 524.53125 329.296875 C 522.832031 329.148438 521.578125 327.648438 521.730469 325.949219 C 521.878906 324.25 523.375 322.996094 525.074219 323.148438 L 555.570312 325.851562 C 557.265625 326.003906 558.519531 327.503906 558.367188 329.199219 C 558.226562 330.804688 556.878906 332.015625 555.300781 332.015625 Z M 555.300781 332.015625 " fill-opacity="1" fill-rule="nonzero"/><g clip-path="url(#a24ad0c451)"><path fill="#ffb401" d="M 526.878906 297.519531 C 525.410156 297.519531 524.105469 296.464844 523.84375 294.964844 C 523.546875 293.285156 524.671875 291.6875 526.351562 291.390625 L 556.507812 286.105469 C 558.183594 285.8125 559.785156 286.933594 560.078125 288.613281 C 560.375 290.292969 559.25 291.890625 557.570312 292.1875 L 527.414062 297.476562 C 527.238281 297.507812 527.054688 297.519531 526.878906 297.519531 Z M 526.878906 297.519531 " fill-opacity="1" fill-rule="nonzero"/></g><path fill="#ffb401" d="M 520.679688 266.273438 C 519.515625 266.273438 518.402344 265.609375 517.878906 264.484375 C 517.160156 262.941406 517.832031 261.105469 519.375 260.386719 L 547.136719 247.46875 C 548.679688 246.75 550.515625 247.421875 551.234375 248.964844 C 551.953125 250.511719 551.28125 252.347656 549.738281 253.066406 L 521.976562 265.984375 C 521.554688 266.179688 521.113281 266.273438 520.679688 266.273438 Z M 520.679688 266.273438 " fill-opacity="1" fill-rule="nonzero"/><path fill="#ffb401" d="M 506.597656 237.699219 C 505.71875 237.699219 504.84375 237.324219 504.230469 236.597656 C 503.136719 235.289062 503.308594 233.34375 504.617188 232.25 L 528.089844 212.582031 C 529.398438 211.488281 531.339844 211.660156 532.4375 212.96875 C 533.53125 214.273438 533.359375 216.222656 532.050781 217.316406 L 508.578125 236.984375 C 508 237.464844 507.296875 237.703125 506.597656 237.703125 Z M 506.597656 237.699219 " fill-opacity="1" fill-rule="nonzero"/><path fill="#ffb401" d="M 485.605469 213.75 C 484.992188 213.75 484.375 213.566406 483.835938 213.1875 C 482.441406 212.207031 482.105469 210.28125 483.082031 208.886719 L 500.667969 183.8125 C 501.648438 182.417969 503.574219 182.078125 504.964844 183.058594 C 506.359375 184.035156 506.695312 185.960938 505.71875 187.355469 L 488.132812 212.433594 C 487.53125 213.289062 486.578125 213.746094 485.605469 213.746094 Z M 485.605469 213.75 " fill-opacity="1" fill-rule="nonzero"/><path fill="#ffb401" d="M 459.140625 196.046875 C 458.792969 196.046875 458.433594 195.984375 458.082031 195.855469 C 456.484375 195.273438 455.660156 193.5 456.246094 191.898438 L 466.75 163.121094 C 467.335938 161.519531 469.105469 160.695312 470.703125 161.28125 C 472.304688 161.867188 473.128906 163.636719 472.542969 165.242188 L 462.039062 194.019531 C 461.582031 195.269531 460.398438 196.046875 459.140625 196.046875 Z M 459.140625 196.046875 " fill-opacity="1" fill-rule="nonzero"/><path fill="#ffb401" d="M 421.511719 184.644531 C 421.394531 184.644531 421.273438 184.636719 421.152344 184.625 C 419.460938 184.429688 418.246094 182.898438 418.441406 181.203125 L 421.949219 150.765625 C 422.144531 149.074219 423.675781 147.859375 425.367188 148.054688 C 427.058594 148.25 428.273438 149.78125 428.078125 151.476562 L 424.574219 181.910156 C 424.390625 183.484375 423.054688 184.644531 421.511719 184.644531 Z M 421.511719 184.644531 " fill-opacity="1" fill-rule="nonzero"/><g fill="#001447" fill-opacity="1"><g transform="translate(168.324399, 610.237965)"><g><path d="M 30.328125 -63.644531 C 30.328125 -65.023438 29.851562 -65.6875 28.617188 -65.6875 L 19.03125 -65.6875 C 18.511719 -65.6875 17.703125 -65.304688 17.703125 -63.882812 L 17.703125 -16.613281 C 17.703125 -13.148438 15.945312 -10.394531 12.246094 -10.394531 C 10.0625 -10.394531 7.972656 -11.484375 6.597656 -12.910156 C 6.171875 -13.382812 5.695312 -13.621094 5.222656 -13.621094 C 4.746094 -13.621094 4.273438 -13.382812 3.890625 -12.910156 L -0.476562 -7.402344 C -1.1875 -6.503906 -0.476562 -5.078125 -0.046875 -4.554688 C 3.132812 -0.710938 8.117188 1.042969 12.910156 1.042969 C 22.355469 1.042969 30.328125 -5.457031 30.328125 -15.898438 Z M 30.328125 -63.644531 "/></g></g></g><g fill="#001447" fill-opacity="1"><g transform="translate(206.644376, 610.237965)"><g><path d="M 37.828125 -50.214844 C 37.828125 -60.558594 29.566406 -66.683594 20.027344 -66.683594 C 10.535156 -66.683594 2.375 -60.511719 2.375 -50.214844 L 2.375 -15.425781 C 2.375 -5.363281 10.535156 1.042969 20.027344 1.042969 C 29.566406 1.042969 37.828125 -5.125 37.828125 -15.425781 Z M 20.125 -55.292969 C 23.304688 -55.292969 25.203125 -52.539062 25.203125 -49.5 L 25.203125 -15.804688 C 25.203125 -12.816406 23.304688 -10.394531 20.027344 -10.394531 C 16.800781 -10.394531 14.996094 -13.097656 14.996094 -16.089844 L 14.996094 -49.5 C 14.996094 -52.539062 16.894531 -55.292969 20.125 -55.292969 Z M 20.125 -55.292969 "/></g></g></g><g fill="#001447" fill-opacity="1"><g transform="translate(251.703807, 610.237965)"><g><path d="M 32.082031 0 C 32.9375 0 33.414062 -0.570312 33.414062 -1.707031 L 33.414062 -9.824219 C 33.414062 -10.964844 32.9375 -11.4375 32.082031 -11.4375 L 16.042969 -11.4375 L 16.042969 -63.835938 C 16.042969 -64.972656 15.566406 -65.6875 14.476562 -65.6875 L 4.984375 -65.6875 C 3.9375 -65.6875 3.417969 -64.972656 3.417969 -63.835938 L 3.417969 -1.804688 C 3.417969 -0.664062 3.9375 0 5.03125 0 Z M 32.082031 0 "/></g></g></g><g fill="#001447" fill-opacity="1"><g transform="translate(291.020467, 610.237965)"><g><path d="M 32.082031 0 C 32.9375 0 33.414062 -0.570312 33.414062 -1.707031 L 33.414062 -9.824219 C 33.414062 -10.964844 32.9375 -11.4375 32.082031 -11.4375 L 16.042969 -11.4375 L 16.042969 -63.835938 C 16.042969 -64.972656 15.566406 -65.6875 14.476562 -65.6875 L 4.984375 -65.6875 C 3.9375 -65.6875 3.417969 -64.972656 3.417969 -63.835938 L 3.417969 -1.804688 C 3.417969 -0.664062 3.9375 0 5.03125 0 Z M 32.082031 0 "/></g></g></g><g fill="#001447" fill-opacity="1"><g transform="translate(330.337122, 610.237965)"><g><path d="M 26.007812 -26.386719 C 32.558594 -28.523438 37.445312 -33.980469 37.445312 -41.90625 L 37.445312 -64.640625 C 37.445312 -65.304688 37.066406 -65.6875 36.449219 -65.6875 L 25.820312 -65.6875 C 25.105469 -65.6875 24.773438 -65.210938 24.773438 -64.59375 L 24.773438 -42.289062 C 24.773438 -39.296875 22.972656 -36.878906 19.695312 -36.878906 C 16.421875 -36.878906 14.664062 -39.582031 14.664062 -42.574219 L 14.664062 -64.6875 C 14.664062 -65.210938 14.238281 -65.6875 13.480469 -65.6875 L 3.039062 -65.6875 C 2.324219 -65.6875 2.039062 -65.210938 2.039062 -64.59375 L 1.992188 -41.90625 C 1.992188 -34.171875 6.835938 -28.617188 13.382812 -26.4375 L 13.382812 -1.851562 C 13.382812 -0.664062 13.8125 0 14.808594 0 L 24.632812 0 C 25.628906 0 26.007812 -0.664062 26.007812 -1.851562 Z M 26.007812 -26.386719 "/></g></g></g><g fill="#001447" fill-opacity="1"><g transform="translate(374.637174, 610.237965)"><g/></g></g><g fill="#001447" fill-opacity="1"><g transform="translate(401.519075, 610.237965)"><g><path d="M 25.296875 -15.804688 C 25.296875 -12.816406 23.066406 -10.394531 20.027344 -10.394531 C 17.226562 -10.394531 14.996094 -12.671875 14.996094 -16.042969 L 14.996094 -49.785156 C 14.996094 -52.824219 16.945312 -55.292969 19.980469 -55.292969 C 23.207031 -55.292969 25.058594 -52.492188 25.058594 -49.644531 L 25.058594 -45.46875 C 25.058594 -44.1875 25.34375 -43.664062 26.4375 -43.664062 L 35.40625 -43.664062 C 36.496094 -43.664062 36.878906 -44.234375 36.878906 -45.65625 L 36.878906 -49.976562 C 36.878906 -56.003906 33.414062 -66.683594 20.074219 -66.683594 C 10.535156 -66.683594 2.375 -60.511719 2.375 -50.214844 L 2.375 -15.425781 C 2.375 -4.9375 10.679688 1.042969 20.027344 1.042969 C 29.566406 1.042969 37.160156 -5.125 37.160156 -15.425781 L 37.160156 -33.699219 C 37.160156 -34.835938 36.59375 -35.5 35.453125 -35.5 L 21.785156 -35.5 C 20.835938 -35.5 20.359375 -34.929688 20.359375 -33.839844 L 20.359375 -26.625 C 20.359375 -25.488281 20.835938 -25.011719 21.785156 -25.011719 L 25.296875 -25.011719 Z M 25.296875 -15.804688 "/></g></g></g><g fill="#001447" fill-opacity="1"><g transform="translate(445.724218, 610.237965)"><g><path d="M 16.042969 -11.4375 L 16.042969 -27.527344 L 29.902344 -27.527344 C 30.800781 -27.527344 31.417969 -28.003906 31.417969 -29.140625 L 31.417969 -37.257812 C 31.417969 -38.445312 30.707031 -38.917969 29.902344 -38.917969 L 16.042969 -38.917969 L 16.042969 -54.152344 L 33.414062 -54.152344 C 34.265625 -54.152344 34.742188 -54.722656 34.742188 -55.863281 L 34.742188 -63.929688 C 34.742188 -65.117188 34.265625 -65.6875 33.414062 -65.6875 L 5.03125 -65.6875 C 4.035156 -65.6875 3.417969 -64.972656 3.417969 -63.835938 L 3.417969 -1.804688 C 3.417969 -0.664062 3.9375 0 5.03125 0 L 33.648438 0 C 34.410156 0 35.027344 -0.523438 35.027344 -1.660156 L 35.027344 -9.824219 C 35.027344 -10.917969 34.410156 -11.4375 33.648438 -11.4375 Z M 16.042969 -11.4375 "/></g></g></g><g fill="#001447" fill-opacity="1"><g transform="translate(486.702017, 610.237965)"><g><path d="M 36.925781 0 C 37.96875 0 38.445312 -0.949219 38.445312 -1.898438 L 38.445312 -50.261719 C 38.445312 -59.375 30.183594 -66.730469 20.691406 -66.730469 C 11.199219 -66.730469 2.988281 -59.375 2.988281 -50.261719 L 2.988281 -1.851562 C 2.988281 -0.855469 3.511719 0 4.222656 0 L 14.238281 0 C 15.328125 0 15.664062 -0.808594 15.664062 -1.851562 L 15.664062 -49.550781 C 15.664062 -52.539062 17.511719 -55.246094 20.742188 -55.246094 C 23.921875 -55.246094 25.769531 -52.539062 25.769531 -49.550781 L 25.769531 -1.898438 C 25.769531 -0.902344 26.339844 0 27.289062 0 Z M 36.925781 0 "/></g></g></g><g fill="#001447" fill-opacity="1"><g transform="translate(532.995441, 610.237965)"><g><path d="M 16.042969 -63.835938 C 16.042969 -64.972656 15.566406 -65.6875 14.476562 -65.6875 L 4.984375 -65.6875 C 3.988281 -65.6875 3.417969 -64.972656 3.417969 -63.835938 L 3.417969 -1.804688 C 3.417969 -0.664062 3.890625 0 4.984375 0 L 14.476562 0 C 15.566406 0 16.042969 -0.664062 16.042969 -1.804688 Z M 16.042969 -63.835938 "/></g></g></g><g fill="#001447" fill-opacity="1"><g transform="translate(557.361912, 610.237965)"><g><path d="M 25.769531 -16.136719 C 25.769531 -13.148438 23.921875 -10.394531 20.742188 -10.394531 C 17.511719 -10.394531 15.664062 -13.148438 15.664062 -16.136719 L 15.664062 -63.835938 C 15.664062 -64.832031 15.378906 -65.6875 14.238281 -65.6875 L 4.222656 -65.6875 C 3.558594 -65.6875 2.988281 -64.832031 2.988281 -63.835938 L 2.988281 -15.425781 C 2.988281 -6.3125 11.199219 1.042969 20.691406 1.042969 C 30.183594 1.042969 38.445312 -6.3125 38.445312 -15.425781 L 38.445312 -63.789062 C 38.445312 -64.738281 37.96875 -65.6875 36.925781 -65.6875 L 27.289062 -65.6875 C 26.292969 -65.6875 25.769531 -64.785156 25.769531 -63.789062 Z M 25.769531 -16.136719 "/></g></g></g><g fill="#001447" fill-opacity="1"><g transform="translate(603.655312, 610.237965)"><g><path d="M 23.871094 -46.652344 C 23.871094 -45.324219 24.0625 -44.851562 25.25 -44.851562 L 33.746094 -44.851562 C 35.261719 -44.851562 35.597656 -45.324219 35.597656 -46.652344 L 35.597656 -49.359375 C 35.597656 -59.847656 28.570312 -66.683594 18.746094 -66.683594 C 12.101562 -66.683594 1.898438 -61.984375 1.898438 -49.644531 C 1.898438 -38.777344 6.359375 -35.644531 16.277344 -27.574219 C 22.117188 -22.828125 24.585938 -20.691406 24.585938 -16.089844 C 24.585938 -12.625 22.164062 -10.441406 19.175781 -10.441406 C 16.753906 -10.441406 13.765625 -11.960938 13.765625 -16.707031 L 13.765625 -18.84375 C 13.765625 -20.265625 13.480469 -20.789062 12.148438 -20.789062 L 3.511719 -20.789062 C 2.183594 -20.789062 1.898438 -20.125 1.898438 -18.511719 L 1.898438 -15.996094 C 1.898438 -7.070312 7.640625 1.042969 19.078125 1.042969 C 29.566406 1.042969 36.59375 -6.550781 36.59375 -15.425781 C 36.59375 -27.433594 29.519531 -32.605469 20.644531 -39.488281 C 16.421875 -42.761719 13.621094 -44.804688 13.621094 -49.3125 C 13.621094 -53.632812 16.375 -55.292969 18.746094 -55.292969 C 22.164062 -55.292969 23.871094 -52.585938 23.871094 -49.3125 Z M 23.871094 -46.652344 "/></g></g></g><g fill="#e00051" fill-opacity="1"><g transform="translate(221.10469, 653.977838)"><g><path d="M 21.875 0 L 16.984375 0 L 16.984375 -9.984375 L 7.8125 -9.984375 L 7.8125 0 L 2.90625 0 L 2.90625 -23.140625 L 7.8125 -23.140625 L 7.8125 -14.0625 L 16.984375 -14.0625 L 16.984375 -23.140625 L 21.875 -23.140625 Z M 21.875 0 "/></g></g></g><g fill="#e00051" fill-opacity="1"><g transform="translate(252.37512, 653.977838)"><g><path d="M 17.078125 0 L 15.390625 -5.5 L 6.96875 -5.5 L 5.28125 0 L 0 0 L 8.171875 -23.234375 L 14.15625 -23.234375 L 22.359375 0 Z M 14.21875 -9.625 C 12.675781 -14.613281 11.804688 -17.429688 11.609375 -18.078125 C 11.410156 -18.734375 11.269531 -19.253906 11.1875 -19.640625 C 10.84375 -18.285156 9.847656 -14.945312 8.203125 -9.625 Z M 14.21875 -9.625 "/></g></g></g><g fill="#e00051" fill-opacity="1"><g transform="translate(281.209222, 653.977838)"><g><path d="M 7.8125 -12.25 L 9.4375 -12.25 C 10.9375 -12.25 12.0625 -12.546875 12.8125 -13.140625 C 13.5625 -13.734375 13.9375 -14.601562 13.9375 -15.75 C 13.9375 -16.894531 13.625 -17.738281 13 -18.28125 C 12.375 -18.832031 11.390625 -19.109375 10.046875 -19.109375 L 7.8125 -19.109375 Z M 18.890625 -15.921875 C 18.890625 -13.429688 18.109375 -11.523438 16.546875 -10.203125 C 14.992188 -8.890625 12.785156 -8.234375 9.921875 -8.234375 L 7.8125 -8.234375 L 7.8125 0 L 2.90625 0 L 2.90625 -23.140625 L 10.296875 -23.140625 C 13.109375 -23.140625 15.242188 -22.535156 16.703125 -21.328125 C 18.160156 -20.117188 18.890625 -18.316406 18.890625 -15.921875 Z M 18.890625 -15.921875 "/></g></g></g><g fill="#e00051" fill-opacity="1"><g transform="translate(308.034144, 653.977838)"><g><path d="M 7.8125 -12.25 L 9.4375 -12.25 C 10.9375 -12.25 12.0625 -12.546875 12.8125 -13.140625 C 13.5625 -13.734375 13.9375 -14.601562 13.9375 -15.75 C 13.9375 -16.894531 13.625 -17.738281 13 -18.28125 C 12.375 -18.832031 11.390625 -19.109375 10.046875 -19.109375 L 7.8125 -19.109375 Z M 18.890625 -15.921875 C 18.890625 -13.429688 18.109375 -11.523438 16.546875 -10.203125 C 14.992188 -8.890625 12.785156 -8.234375 9.921875 -8.234375 L 7.8125 -8.234375 L 7.8125 0 L 2.90625 0 L 2.90625 -23.140625 L 10.296875 -23.140625 C 13.109375 -23.140625 15.242188 -22.535156 16.703125 -21.328125 C 18.160156 -20.117188 18.890625 -18.316406 18.890625 -15.921875 Z M 18.890625 -15.921875 "/></g></g></g><g fill="#e00051" fill-opacity="1"><g transform="translate(334.859067, 653.977838)"><g><path d="M 10.109375 -13.609375 L 14.9375 -23.140625 L 20.21875 -23.140625 L 12.546875 -9 L 12.546875 0 L 7.671875 0 L 7.671875 -8.84375 L 0 -23.140625 L 5.3125 -23.140625 Z M 10.109375 -13.609375 "/></g></g></g><g fill="#e00051" fill-opacity="1"><g transform="translate(361.557427, 653.977838)"><g/></g></g><g fill="#e00051" fill-opacity="1"><g transform="translate(376.453834, 653.977838)"><g><path d="M 2.90625 0 L 2.90625 -23.140625 L 7.8125 -23.140625 L 7.8125 -4.046875 L 17.203125 -4.046875 L 17.203125 0 Z M 2.90625 0 "/></g></g></g><g fill="#e00051" fill-opacity="1"><g transform="translate(401.237936, 653.977838)"><g><path d="M 16.234375 0 L 2.90625 0 L 2.90625 -23.140625 L 16.234375 -23.140625 L 16.234375 -19.109375 L 7.8125 -19.109375 L 7.8125 -14.03125 L 15.65625 -14.03125 L 15.65625 -10.015625 L 7.8125 -10.015625 L 7.8125 -4.046875 L 16.234375 -4.046875 Z M 16.234375 0 "/></g></g></g><g fill="#e00051" fill-opacity="1"><g transform="translate(425.863835, 653.977838)"><g><path d="M 17.078125 0 L 15.390625 -5.5 L 6.96875 -5.5 L 5.28125 0 L 0 0 L 8.171875 -23.234375 L 14.15625 -23.234375 L 22.359375 0 Z M 14.21875 -9.625 C 12.675781 -14.613281 11.804688 -17.429688 11.609375 -18.078125 C 11.410156 -18.734375 11.269531 -19.253906 11.1875 -19.640625 C 10.84375 -18.285156 9.847656 -14.945312 8.203125 -9.625 Z M 14.21875 -9.625 "/></g></g></g><g fill="#e00051" fill-opacity="1"><g transform="translate(454.697937, 653.977838)"><g><path d="M 7.8125 -12.859375 L 9.40625 -12.859375 C 10.945312 -12.859375 12.085938 -13.117188 12.828125 -13.640625 C 13.566406 -14.160156 13.9375 -14.972656 13.9375 -16.078125 C 13.9375 -17.171875 13.554688 -17.945312 12.796875 -18.40625 C 12.046875 -18.875 10.878906 -19.109375 9.296875 -19.109375 L 7.8125 -19.109375 Z M 7.8125 -8.875 L 7.8125 0 L 2.90625 0 L 2.90625 -23.140625 L 9.65625 -23.140625 C 12.800781 -23.140625 15.125 -22.566406 16.625 -21.421875 C 18.132812 -20.273438 18.890625 -18.535156 18.890625 -16.203125 C 18.890625 -14.835938 18.515625 -13.625 17.765625 -12.5625 C 17.015625 -11.507812 15.957031 -10.679688 14.59375 -10.078125 C 18.070312 -4.878906 20.335938 -1.519531 21.390625 0 L 15.953125 0 L 10.421875 -8.875 Z M 7.8125 -8.875 "/></g></g></g><g fill="#e00051" fill-opacity="1"><g transform="translate(482.567, 653.977838)"><g><path d="M 23.4375 0 L 17.203125 0 L 7.140625 -17.5 L 7 -17.5 C 7.195312 -14.40625 7.296875 -12.203125 7.296875 -10.890625 L 7.296875 0 L 2.90625 0 L 2.90625 -23.140625 L 9.09375 -23.140625 L 19.140625 -5.8125 L 19.25 -5.8125 C 19.09375 -8.8125 19.015625 -10.9375 19.015625 -12.1875 L 19.015625 -23.140625 L 23.4375 -23.140625 Z M 23.4375 0 "/></g></g></g><g fill="#e00051" fill-opacity="1"><g transform="translate(515.387822, 653.977838)"><g><path d="M 2.90625 0 L 2.90625 -23.140625 L 7.8125 -23.140625 L 7.8125 0 Z M 2.90625 0 "/></g></g></g><g fill="#e00051" fill-opacity="1"><g transform="translate(532.593994, 653.977838)"><g><path d="M 23.4375 0 L 17.203125 0 L 7.140625 -17.5 L 7 -17.5 C 7.195312 -14.40625 7.296875 -12.203125 7.296875 -10.890625 L 7.296875 0 L 2.90625 0 L 2.90625 -23.140625 L 9.09375 -23.140625 L 19.140625 -5.8125 L 19.25 -5.8125 C 19.09375 -8.8125 19.015625 -10.9375 19.015625 -12.1875 L 19.015625 -23.140625 L 23.4375 -23.140625 Z M 23.4375 0 "/></g></g></g><g fill="#e00051" fill-opacity="1"><g transform="translate(565.414816, 653.977838)"><g><path d="M 11.6875 -12.984375 L 20.875 -12.984375 L 20.875 -1 C 19.382812 -0.507812 17.984375 -0.171875 16.671875 0.015625 C 15.359375 0.210938 14.015625 0.3125 12.640625 0.3125 C 9.148438 0.3125 6.484375 -0.710938 4.640625 -2.765625 C 2.804688 -4.816406 1.890625 -7.757812 1.890625 -11.59375 C 1.890625 -15.332031 2.957031 -18.242188 5.09375 -20.328125 C 7.226562 -22.421875 10.1875 -23.46875 13.96875 -23.46875 C 16.34375 -23.46875 18.632812 -22.992188 20.84375 -22.046875 L 19.203125 -18.125 C 17.515625 -18.96875 15.757812 -19.390625 13.9375 -19.390625 C 11.820312 -19.390625 10.125 -18.675781 8.84375 -17.25 C 7.570312 -15.820312 6.9375 -13.90625 6.9375 -11.5 C 6.9375 -8.988281 7.445312 -7.070312 8.46875 -5.75 C 9.5 -4.425781 10.992188 -3.765625 12.953125 -3.765625 C 13.984375 -3.765625 15.023438 -3.867188 16.078125 -4.078125 L 16.078125 -8.90625 L 11.6875 -8.90625 Z M 11.6875 -12.984375 "/></g></g></g></svg>